<?xml version="1.0" encoding="utf-8"?>
<!-- Svg Vector Icons : http://www.onlinewebfonts.com/icon -->
<!DOCTYPE svg PUBLIC "-//W3C//DTD SVG 1.1//EN" "http://www.w3.org/Graphics/SVG/1.1/DTD/svg11.dtd">
<svg version="1.1" xmlns="http://www.w3.org/2000/svg" xmlns:xlink="http://www.w3.org/1999/xlink" x="0px" y="0px" viewBox="0 0 1000 1000" enable-background="new 0 0 1000 1000" xml:space="preserve">
<metadata> Svg Vector Icons : http://www.onlinewebfonts.com/icon </metadata>
<g><g transform="translate(0.000000,511.000000) scale(0.100000,-0.100000)"><path d="M998.6,4360.5c-32.6-21.1-69-65.1-82.4-99.6c-13.4-40.2-21.1-241.4-21.1-572.9v-511.6L778.2,3163c-247.2-24.9-511.5-222.2-626.5-465.6L100,2586.3V-507.9v-3094.2l51.7-111.1c72.8-155.2,241.4-325.7,396.6-402.3l126.5-61.3h4310.8h4310.8l124.5,59.4c155.2,74.7,277.8,183.9,358.3,316.1c128.4,214.6,120.7,24.9,120.7,3293.5c0,3268.6,7.7,3078.9-120.7,3293.5c-122.6,203.1-364,360.2-588.2,379.4l-114.9,11.5v544.1v546l-65.2,65.1l-65.1,65.1h-873.7c-756.8,0-883.2-3.8-933-30.7c-105.4-53.6-113-105.4-113-678.2v-517.3H4985.6H2945.1v548v548l-65.1,65.1l-65.1,65.1h-879.4C1107.8,4396.9,1054.1,4394.9,998.6,4360.5z M2539,3578.8l3.8-408.1h-613.1h-613.1v411.9v411.9l609.3-3.8l607.3-5.7L2539,3578.8z M8669.9,3578.8l3.8-408.1h-613.1h-613.1v411.9v411.9l609.3-3.8l607.3-5.7L8669.9,3578.8z M9319.4,2724.3c32.6-17.3,80.5-59.4,105.4-93.9l44.1-63.2v-3075v-3075l-44.1-63.2c-24.9-34.5-72.8-76.6-105.4-95.8c-57.5-30.7-316.1-32.6-4238-38.3c-2297.2-3.8-4220.8,0-4276.3,5.7c-109.2,13.4-199.3,65.1-262.5,149.4l-40.2,53.6l-5.7,3019.5c-1.9,1960,1.9,3042.5,15.3,3088.4c23,86.2,105.4,168.6,197.3,201.2c53.6,17.2,1003.9,23,4308.9,21.1C8982.2,2758.8,9261.9,2754.9,9319.4,2724.3z"/><path d="M2667.3,911.8c-21.1-9.6-55.6-36.4-76.6-59.4c-34.5-38.3-38.3-76.6-47.9-496.2L2533.2-96l-454.1-9.6c-440.7-9.6-454.1-11.5-500-53.6c-61.3-57.5-76.6-141.8-44.1-224.2c47.9-115,92-124.5,576.7-124.5h431.1V-960v-452.2l55.6-55.5c63.2-63.2,159-74.7,249.1-28.8c90,47.9,97.7,93.9,97.7,557.5v431.1h433c279.7,0,446.4,7.7,473.2,21.1c72.8,36.4,109.2,97.7,109.2,185.8c0,67.1-11.5,93.9-55.6,139.9l-55.6,55.6h-452.2h-452.2v429.2c0,237.6-7.7,452.2-19.2,479C2893.4,888.8,2751.6,948.2,2667.3,911.8z"/><path d="M6112.1-128.5c-109.2-53.6-128.4-233.8-32.6-323.8l49.8-46l1101.7-5.7l1101.6-3.8l65.1,65.1c93.9,93.9,86.2,218.4-19.2,302.7c-36.4,30.6-124.5,34.5-1132.3,32.6C6529.8-107.5,6140.9-115.1,6112.1-128.5z"/></g></g>
</svg>