<svg id="svg" version="1.1" xmlns="http://www.w3.org/2000/svg" xmlns:xlink="http://www.w3.org/1999/xlink" width="400" height="225" viewBox="0, 0, 400,225"><g id="svgg"><path id="path0" d="M0.000 112.549 L 0.000 225.098 200.000 225.098 L 400.000 225.098 400.000 112.549 L 400.000 0.000 200.000 0.000 L 0.000 0.000 0.000 112.549 M204.391 83.617 C 225.919 86.151,237.088 110.159,225.126 128.189 C 215.900 142.094,196.830 145.191,183.568 134.937 C 167.345 122.394,169.264 96.898,187.169 87.081 C 188.838 86.167,189.439 85.889,191.728 84.975 C 193.581 84.236,197.941 83.447,200.902 83.316 C 201.274 83.300,202.844 83.435,204.391 83.617 M37.941 98.089 C 40.424 98.883,42.657 100.227,44.142 101.820 C 44.798 102.525,44.714 102.675,42.544 104.658 L 40.518 106.510 39.449 105.567 C 36.052 102.572,30.346 102.535,27.376 105.490 C 24.231 108.619,23.797 113.840,26.384 117.440 C 29.259 121.444,35.676 121.968,39.382 118.502 L 40.472 117.482 41.774 118.674 C 42.490 119.329,43.482 120.235,43.978 120.688 L 44.879 121.512 43.543 122.785 C 39.300 126.827,31.451 127.741,25.661 124.867 C 15.142 119.644,15.277 104.215,25.886 99.084 C 29.334 97.417,34.503 96.990,37.941 98.089 M267.818 100.560 L 267.881 103.314 260.615 103.373 L 253.348 103.433 253.285 106.229 C 253.238 108.312,253.295 109.073,253.510 109.213 C 253.669 109.317,256.483 109.396,259.764 109.390 C 263.044 109.383,265.855 109.382,266.010 109.388 C 266.218 109.395,266.292 110.070,266.292 111.983 L 266.292 114.568 259.820 114.628 L 253.348 114.688 253.286 117.780 L 253.223 120.872 260.827 120.931 L 268.430 120.990 268.430 123.692 L 268.430 126.393 257.513 126.393 L 246.595 126.393 246.537 112.226 C 246.492 101.042,246.539 98.021,246.763 97.878 C 246.918 97.779,251.705 97.721,257.400 97.751 L 267.755 97.805 267.818 100.560 M187.057 99.831 L 187.057 101.745 201.238 101.745 L 215.419 101.745 215.419 99.831 L 215.419 97.918 201.238 97.918 L 187.057 97.918 187.057 99.831 M60.732 104.447 C 73.199 107.435,72.132 124.513,59.368 126.298 C 53.097 127.176,47.087 123.459,45.945 117.997 C 44.097 109.165,51.628 102.264,60.732 104.447 M83.512 104.054 C 83.512 104.086,83.822 104.972,84.201 106.023 C 85.699 110.175,85.695 110.115,84.457 109.827 C 79.474 108.670,78.340 110.729,78.336 120.934 L 78.334 125.830 75.183 125.830 L 72.032 125.830 72.032 118.443 C 72.032 107.824,72.842 105.845,77.772 104.418 C 78.882 104.097,83.512 103.803,83.512 104.054 M150.929 104.337 C 153.249 104.726,155.993 105.697,155.993 106.129 C 155.993 106.290,155.588 107.242,155.093 108.245 C 154.598 109.248,154.192 110.171,154.192 110.296 C 154.192 110.574,153.463 110.597,153.168 110.328 C 151.437 108.744,144.535 108.808,143.919 110.413 C 143.415 111.726,144.190 112.146,148.740 113.026 C 154.947 114.225,156.746 115.662,156.741 119.415 C 156.733 125.175,149.064 128.091,140.574 125.563 C 137.050 124.513,136.868 124.292,137.874 122.258 C 138.307 121.382,138.664 120.586,138.668 120.490 C 138.702 119.649,139.314 119.468,140.395 119.977 C 144.895 122.097,150.571 121.885,150.587 119.596 C 150.594 118.642,150.117 118.469,144.765 117.482 C 139.460 116.504,137.758 114.969,137.762 111.165 C 137.768 105.908,143.274 103.053,150.929 104.337 M93.412 106.415 C 93.827 107.499,94.231 108.486,94.311 108.610 C 94.391 108.734,94.748 109.595,95.104 110.523 C 95.460 111.452,95.816 112.313,95.895 112.437 C 95.973 112.560,96.537 113.951,97.147 115.527 C 98.299 118.504,98.464 118.740,98.810 117.895 C 99.275 116.761,101.780 110.829,101.971 110.411 C 102.084 110.163,102.677 108.745,103.289 107.259 L 104.401 104.558 107.561 104.496 L 110.720 104.434 110.197 105.734 C 109.505 107.454,108.974 108.733,108.722 109.285 C 108.609 109.533,107.392 112.420,106.018 115.701 C 104.644 118.981,103.096 122.656,102.579 123.866 L 101.638 126.066 98.281 126.004 L 94.924 125.943 93.929 123.579 C 92.819 120.944,91.505 117.799,89.274 112.437 C 88.449 110.456,87.682 108.633,87.568 108.385 C 87.211 107.607,85.988 104.628,85.988 104.535 C 85.988 104.486,87.489 104.446,89.323 104.446 L 92.659 104.446 93.412 106.415 M118.862 110.917 C 118.875 119.711,119.301 120.709,123.035 120.709 C 127.030 120.709,127.856 118.884,127.856 110.056 L 127.856 104.433 131.064 104.496 L 134.271 104.558 134.271 115.250 L 134.271 125.943 131.176 126.005 L 128.081 126.068 128.081 125.022 L 128.081 123.976 127.289 124.580 C 123.831 127.218,117.989 126.973,114.958 124.063 C 112.613 121.812,112.332 120.465,112.327 111.480 L 112.324 104.446 115.588 104.446 L 118.852 104.446 118.862 110.917 M288.211 105.316 C 292.244 107.301,292.741 108.759,292.741 118.627 L 292.741 126.393 289.589 126.393 L 286.438 126.393 286.325 119.527 C 286.220 113.118,286.182 112.609,285.750 111.874 C 284.263 109.342,279.777 109.508,278.054 112.159 L 277.434 113.112 277.365 119.635 C 277.314 124.373,277.222 126.204,277.027 126.328 C 276.641 126.573,271.070 126.546,270.917 126.298 C 270.825 126.149,270.723 109.142,270.789 104.952 C 270.792 104.741,271.554 104.671,273.832 104.671 L 276.871 104.671 276.871 105.808 L 276.871 106.945 277.603 106.396 C 280.455 104.257,285.100 103.784,288.211 105.316 M309.499 104.669 C 314.752 105.665,318.273 110.269,318.023 115.813 L 317.952 117.389 309.904 117.448 C 305.478 117.480,301.857 117.560,301.857 117.626 C 301.857 117.996,302.808 119.498,303.356 119.993 C 305.533 121.959,309.847 121.983,312.403 120.043 L 313.156 119.471 314.711 121.013 C 316.712 123.000,316.786 123.243,315.674 124.184 C 310.135 128.872,299.334 126.880,296.390 120.628 C 292.243 111.819,299.651 102.801,309.499 104.669 M349.815 105.158 C 350.500 105.472,351.431 106.054,351.883 106.451 L 352.705 107.172 352.773 105.978 L 352.842 104.783 355.824 104.721 L 358.807 104.658 358.807 114.971 C 358.807 127.594,358.618 128.656,355.886 131.388 C 351.897 135.377,342.539 135.613,336.553 131.875 C 336.288 131.710,336.072 131.510,336.072 131.432 C 336.072 131.304,338.279 127.191,338.462 126.979 C 338.505 126.930,339.285 127.268,340.197 127.731 C 346.313 130.835,352.279 129.041,352.279 124.098 L 352.279 123.121 351.137 123.907 C 347.403 126.475,340.902 125.602,337.671 122.098 C 332.320 116.296,335.104 106.681,342.695 104.748 C 344.619 104.258,348.313 104.471,349.815 105.158 M333.898 105.313 C 335.990 105.903,336.071 106.026,335.106 107.153 C 334.665 107.668,334.018 108.642,333.669 109.316 L 333.033 110.542 331.646 110.396 C 327.659 109.977,327.042 111.228,326.860 120.090 L 326.730 126.393 323.635 126.455 L 320.540 126.518 320.540 118.976 C 320.540 111.917,320.571 111.341,321.014 109.991 C 322.484 105.513,327.785 103.588,333.898 105.313 M367.977 106.584 C 368.390 107.575,368.825 108.619,368.944 108.905 C 369.063 109.191,369.371 109.951,369.628 110.593 C 369.886 111.236,370.237 112.065,370.409 112.437 C 370.581 112.808,370.933 113.661,371.192 114.332 C 371.450 115.003,371.842 115.965,372.064 116.470 C 372.286 116.976,372.598 117.721,372.758 118.128 C 373.095 118.983,373.177 118.941,373.681 117.660 C 374.132 116.514,376.970 109.692,377.259 109.060 C 377.372 108.813,377.837 107.724,378.292 106.640 L 379.119 104.671 382.131 104.671 C 385.598 104.671,385.461 104.544,384.482 106.836 C 384.118 107.688,383.067 110.158,382.146 112.324 C 377.899 122.314,377.198 123.960,376.920 124.592 C 376.757 124.963,376.245 126.162,375.784 127.256 C 373.317 133.100,369.884 135.283,364.700 134.306 C 360.298 133.475,359.929 132.454,362.551 128.354 L 362.880 127.840 363.504 128.285 C 365.596 129.774,368.430 129.248,369.505 127.170 C 369.821 126.559,369.682 126.191,365.220 115.799 C 362.683 109.892,360.608 104.969,360.608 104.859 C 360.608 104.748,362.088 104.687,363.917 104.721 L 367.226 104.783 367.977 106.584 M193.134 108.160 L 193.134 110.073 201.238 110.073 L 209.342 110.073 209.342 108.160 L 209.342 106.246 201.238 106.246 L 193.134 106.246 193.134 108.160 M55.800 109.736 C 50.721 111.361,51.166 119.794,56.387 120.878 C 60.048 121.638,62.786 119.255,62.797 115.299 C 62.809 111.052,59.618 108.514,55.800 109.736 M304.924 109.729 C 303.510 110.232,301.857 112.113,301.857 113.217 C 301.857 113.370,303.584 113.450,306.901 113.450 L 311.944 113.450 311.705 112.670 C 310.933 110.153,307.685 108.744,304.924 109.729 M344.238 110.422 C 342.085 111.495,341.107 113.702,341.669 116.216 C 342.749 121.041,350.493 121.346,352.157 116.628 C 353.766 112.069,348.778 108.159,344.238 110.422 M187.057 116.263 L 187.057 118.177 201.238 118.177 L 215.419 118.177 215.419 116.263 L 215.419 114.350 201.238 114.350 L 187.057 114.350 187.057 116.263 M193.134 124.595 L 193.134 126.511 201.182 126.452 L 209.229 126.393 209.294 124.536 L 209.360 122.679 201.247 122.679 L 193.134 122.679 193.134 124.595 " stroke="none" fill="#fbfbfb" fill-rule="evenodd"></path><path id="path1" d="M30.501 97.933 C 14.967 100.034,13.806 121.941,29.023 125.826 C 33.969 127.089,39.864 125.813,43.169 122.763 L 44.457 121.575 43.084 120.270 C 42.330 119.552,41.446 118.722,41.122 118.425 L 40.532 117.886 39.681 118.654 C 33.876 123.892,25.019 120.406,24.381 112.633 C 23.721 104.585,33.383 99.850,39.505 105.222 C 40.590 106.174,40.330 106.251,42.521 104.333 C 44.623 102.493,44.631 102.424,42.938 101.059 C 39.554 98.333,35.350 97.276,30.501 97.933 M246.933 112.212 L 246.933 126.280 257.513 126.280 L 268.092 126.280 268.092 123.692 L 268.092 121.103 260.551 121.103 L 253.011 121.103 253.011 117.727 L 253.011 114.350 259.426 114.350 L 265.841 114.350 265.841 111.990 L 265.841 109.630 259.482 109.570 L 253.123 109.510 253.061 106.303 L 252.998 103.095 260.320 103.095 L 267.642 103.095 267.642 100.619 L 267.642 98.143 257.288 98.143 L 246.933 98.143 246.933 112.212 M79.235 104.443 C 73.458 105.174,72.257 107.592,72.257 118.482 L 72.257 125.605 75.165 125.605 L 78.073 125.605 78.149 119.246 C 78.256 110.475,78.735 109.510,82.988 109.510 C 84.143 109.510,85.087 109.502,85.087 109.492 C 85.086 109.315,83.522 105.091,83.323 104.727 C 83.021 104.176,81.942 104.101,79.235 104.443 M53.447 104.980 C 43.898 108.331,43.188 121.176,52.336 125.088 C 61.660 129.075,71.233 121.719,68.799 112.437 C 67.182 106.268,59.880 102.722,53.447 104.980 M143.613 104.824 C 139.437 106.151,137.721 108.385,138.063 112.048 C 138.366 115.295,140.982 116.895,147.148 117.605 C 149.627 117.890,150.816 118.587,150.816 119.756 C 150.816 122.092,145.300 122.453,140.753 120.416 L 139.357 119.790 138.446 121.698 C 137.236 124.232,137.214 124.189,140.229 125.152 C 149.786 128.205,158.088 124.220,156.216 117.478 C 155.649 115.439,151.483 113.225,148.213 113.225 C 146.201 113.225,143.613 111.994,143.613 111.036 C 143.613 108.569,149.371 107.940,153.139 109.996 C 153.488 110.186,153.796 110.307,153.824 110.264 C 153.943 110.078,155.188 107.423,155.453 106.791 C 155.738 106.108,155.729 106.091,154.893 105.722 C 152.097 104.488,146.158 104.016,143.613 104.824 M86.560 105.177 C 86.644 105.456,86.847 105.988,87.012 106.359 C 87.176 106.730,87.576 107.693,87.901 108.497 C 88.466 109.896,88.645 110.317,89.435 112.099 C 89.627 112.532,90.201 113.900,90.711 115.138 C 91.220 116.376,91.728 117.591,91.840 117.839 C 92.029 118.261,93.306 121.294,94.588 124.367 L 95.151 125.718 98.289 125.780 L 101.428 125.842 101.792 124.992 C 101.993 124.524,102.578 123.129,103.092 121.891 C 103.605 120.653,104.161 119.336,104.326 118.965 C 104.491 118.593,105.046 117.276,105.560 116.038 C 106.074 114.800,106.584 113.585,106.695 113.337 C 107.100 112.427,108.304 109.585,109.193 107.439 C 109.695 106.226,110.161 105.104,110.229 104.945 C 110.326 104.718,109.748 104.670,107.491 104.720 L 104.630 104.783 104.083 106.134 C 103.783 106.877,103.393 107.788,103.217 108.160 C 102.738 109.173,102.100 110.677,101.406 112.437 C 100.812 113.944,99.606 116.791,98.903 118.346 C 98.465 119.314,98.332 119.272,97.841 118.007 C 97.614 117.419,97.338 116.736,97.229 116.488 C 97.120 116.241,96.567 114.873,96.000 113.450 C 95.434 112.026,94.835 110.557,94.671 110.186 C 94.507 109.814,93.938 108.421,93.406 107.091 L 92.439 104.671 89.423 104.671 L 86.407 104.671 86.560 105.177 M112.549 111.539 C 112.549 119.265,112.746 120.614,114.181 122.740 C 116.786 126.600,123.578 127.328,127.352 124.153 C 128.335 123.326,128.531 123.418,128.531 124.705 L 128.531 125.830 131.232 125.830 L 133.934 125.830 133.934 115.250 L 133.934 104.671 131.007 104.671 L 128.081 104.671 128.081 110.400 C 128.081 119.082,127.095 121.103,122.856 121.103 C 119.197 121.103,118.559 119.660,118.449 111.142 L 118.366 104.671 115.457 104.671 L 112.549 104.671 112.549 111.539 M281.486 104.989 C 279.996 105.291,278.643 105.921,277.600 106.798 C 276.686 107.568,276.646 107.545,276.646 106.246 L 276.646 105.121 273.832 105.121 L 271.019 105.121 271.019 115.701 L 271.019 126.280 273.927 126.280 L 276.835 126.280 276.910 119.921 C 276.985 113.640,276.993 113.550,277.548 112.519 C 278.858 110.085,281.387 109.129,283.963 110.093 C 286.424 111.014,286.775 112.326,286.775 120.582 L 286.775 126.280 289.702 126.280 L 292.628 126.280 292.626 119.696 C 292.625 112.761,292.454 110.828,291.699 109.173 C 290.133 105.740,286.044 104.064,281.486 104.989 M304.221 105.003 C 295.923 106.540,292.609 117.074,298.553 123.018 C 302.475 126.940,309.917 127.674,314.554 124.596 C 316.677 123.187,316.775 123.567,313.374 119.997 C 313.193 119.808,313.011 119.767,312.923 119.896 C 310.626 123.241,302.658 121.819,301.730 117.898 L 301.585 117.282 309.656 117.223 L 317.727 117.164 317.794 115.728 C 318.137 108.459,311.952 103.571,304.221 105.003 M343.275 104.981 C 334.003 106.670,332.161 119.480,340.556 123.892 C 343.933 125.666,349.774 125.279,351.695 123.153 C 353.095 121.604,353.021 125.415,351.612 127.394 C 349.776 129.972,343.085 130.138,339.470 127.694 L 338.704 127.176 338.333 127.797 C 337.240 129.630,336.334 131.453,336.475 131.537 C 342.418 135.091,351.435 135.072,355.456 131.496 C 358.229 129.030,358.578 127.112,358.580 114.294 L 358.582 105.121 355.768 105.121 L 352.954 105.121 352.954 106.359 C 352.954 107.788,352.832 107.853,351.927 106.901 C 350.187 105.068,346.855 104.328,343.275 104.981 M325.533 105.622 C 323.923 106.256,322.317 107.746,321.531 109.337 L 320.888 110.636 320.809 118.458 L 320.730 126.280 323.656 126.280 L 326.582 126.280 326.661 119.809 C 326.769 110.937,327.416 109.698,331.708 110.141 L 332.928 110.266 333.270 109.448 C 333.458 108.998,334.022 108.086,334.524 107.421 C 335.593 106.005,335.648 106.126,333.683 105.564 C 331.459 104.928,327.218 104.958,325.533 105.622 M361.058 105.259 C 361.058 105.335,361.670 106.829,362.419 108.579 C 364.083 112.468,364.064 112.426,364.617 113.675 C 364.864 114.232,365.843 116.511,366.793 118.739 C 368.615 123.013,368.820 123.487,369.606 125.238 C 370.925 128.177,367.508 130.460,364.114 128.906 L 362.854 128.329 362.131 129.724 C 360.809 132.278,360.779 132.379,361.225 132.721 C 362.823 133.943,366.928 134.513,369.257 133.836 C 372.450 132.907,373.706 131.444,376.031 125.943 C 377.334 122.857,377.694 122.011,377.942 121.441 C 378.049 121.193,378.759 119.522,379.518 117.727 C 380.277 115.931,381.036 114.159,381.204 113.787 C 381.628 112.848,382.086 111.782,382.801 110.073 C 383.137 109.268,383.742 107.825,384.146 106.866 L 384.879 105.121 381.972 105.121 C 380.091 105.121,379.066 105.204,379.066 105.358 C 379.066 105.561,377.867 108.509,376.919 110.636 C 376.753 111.007,376.352 111.970,376.027 112.774 C 375.702 113.579,375.305 114.541,375.145 114.913 C 374.985 115.284,374.510 116.422,374.090 117.442 C 373.163 119.690,373.024 119.716,372.262 117.783 C 371.549 115.976,369.485 110.918,369.068 109.961 C 368.907 109.589,368.384 108.348,367.908 107.203 L 367.041 105.121 364.049 105.121 C 362.404 105.121,361.058 105.183,361.058 105.259 M59.188 109.416 C 62.218 110.066,64.075 114.207,62.819 117.512 C 60.497 123.622,52.101 122.053,51.919 115.476 C 51.801 111.174,54.990 108.516,59.188 109.416 M308.723 109.425 C 310.425 109.897,312.212 111.942,312.212 113.418 C 312.212 113.897,312.177 113.900,306.915 113.900 C 300.972 113.900,301.110 113.943,301.823 112.307 C 302.929 109.770,305.737 108.597,308.723 109.425 M349.786 110.069 C 353.788 112.132,353.662 117.996,349.578 119.800 C 345.582 121.565,341.249 119.003,341.249 114.876 C 341.249 110.714,345.928 108.080,349.786 110.069 " stroke="none" fill="#4b535a" fill-rule="evenodd"></path><path id="path2" d="M198.312 83.656 C 174.310 86.769,164.144 114.731,180.686 132.138 C 198.267 150.639,229.704 137.860,229.704 112.212 C 229.704 95.275,214.607 81.542,198.312 83.656 M215.288 97.829 C 215.576 97.940,215.644 98.350,215.644 99.968 L 215.644 101.970 201.238 101.970 L 186.832 101.970 186.832 99.981 C 186.832 98.888,186.899 97.925,186.982 97.843 C 187.169 97.655,214.801 97.642,215.288 97.829 M209.342 108.163 L 209.342 110.304 201.182 110.245 L 193.022 110.186 192.956 108.405 C 192.919 107.425,192.941 106.488,193.005 106.323 C 193.098 106.079,194.664 106.021,201.231 106.021 L 209.342 106.021 209.342 108.163 M215.597 116.320 L 215.661 118.402 201.246 118.402 L 186.832 118.402 186.832 116.413 C 186.832 115.320,186.900 114.357,186.983 114.273 C 187.067 114.190,193.524 114.148,201.333 114.180 L 215.532 114.237 215.597 116.320 M209.294 124.536 L 209.229 126.618 201.125 126.618 L 193.022 126.618 192.956 124.837 C 192.919 123.858,192.941 122.921,193.005 122.755 C 193.098 122.511,194.666 122.454,201.239 122.454 L 209.358 122.454 209.294 124.536 " stroke="none" fill="#fc8406" fill-rule="evenodd"></path><path id="path3" d="M246.812 98.197 C 246.753 98.353,246.731 104.761,246.764 112.437 L 246.824 126.393 246.879 112.268 L 246.933 98.143 257.288 98.143 L 267.642 98.143 267.642 100.619 L 267.642 103.095 260.320 103.095 L 252.998 103.095 253.061 106.303 L 253.123 109.510 259.496 109.570 L 265.869 109.630 265.799 112.082 C 265.760 113.430,265.805 114.486,265.898 114.428 C 265.990 114.371,266.066 113.215,266.066 111.861 L 266.066 109.398 259.651 109.398 L 253.236 109.398 253.236 106.362 L 253.236 103.326 260.495 103.267 L 267.755 103.208 267.755 100.619 L 267.755 98.030 257.338 97.972 C 249.124 97.926,246.898 97.973,246.812 98.197 M25.830 99.172 C 24.957 99.646,25.056 99.809,25.943 99.358 C 26.791 98.927,26.941 98.815,26.655 98.827 C 26.542 98.832,26.171 98.987,25.830 99.172 M22.048 101.913 L 21.272 102.757 22.116 101.982 C 22.580 101.555,22.960 101.175,22.960 101.138 C 22.960 100.966,22.770 101.128,22.048 101.913 M33.036 103.029 C 33.316 103.083,33.721 103.081,33.936 103.025 C 34.151 102.968,33.922 102.924,33.427 102.927 C 32.932 102.929,32.756 102.975,33.036 103.029 M43.207 103.714 L 42.431 104.558 43.275 103.783 C 44.061 103.060,44.223 102.870,44.051 102.870 C 44.013 102.870,43.633 103.250,43.207 103.714 M56.781 104.385 C 57.245 104.433,58.005 104.433,58.469 104.385 C 58.934 104.336,58.554 104.296,57.625 104.296 C 56.697 104.296,56.317 104.336,56.781 104.385 M79.291 104.376 C 79.508 104.432,79.862 104.432,80.079 104.376 C 80.295 104.319,80.118 104.273,79.685 104.273 C 79.252 104.273,79.074 104.319,79.291 104.376 M146.708 104.385 C 147.234 104.433,148.095 104.433,148.621 104.385 C 149.147 104.338,148.717 104.299,147.665 104.299 C 146.612 104.299,146.182 104.338,146.708 104.385 M60.551 104.637 C 60.737 104.746,61.193 104.901,61.564 104.981 C 61.997 105.075,62.118 105.056,61.902 104.929 C 61.716 104.821,61.261 104.666,60.889 104.586 C 60.457 104.492,60.335 104.511,60.551 104.637 M77.096 104.791 C 76.533 105.062,76.515 105.094,76.984 104.979 C 77.621 104.823,78.338 104.458,77.997 104.463 C 77.873 104.465,77.468 104.612,77.096 104.791 M86.216 104.727 C 86.218 104.882,86.326 105.160,86.456 105.346 C 86.642 105.611,86.662 105.577,86.552 105.184 C 86.412 104.687,86.430 104.683,89.520 104.614 L 92.628 104.544 89.420 104.495 C 86.976 104.457,86.214 104.513,86.216 104.727 M104.593 104.615 C 104.536 104.707,105.837 104.783,107.485 104.783 C 109.132 104.783,110.433 104.707,110.376 104.615 C 110.319 104.522,109.017 104.446,107.485 104.446 C 105.952 104.446,104.650 104.522,104.593 104.615 M115.416 104.614 L 118.394 104.684 118.458 110.699 L 118.522 116.714 118.574 110.580 L 118.627 104.446 115.532 104.495 L 112.437 104.544 115.416 104.614 M131.007 104.611 L 133.934 104.684 133.934 115.257 L 133.934 125.830 131.232 125.830 L 128.531 125.830 128.531 124.705 C 128.531 123.499,128.182 123.221,127.613 123.973 C 127.359 124.308,127.362 124.325,127.630 124.086 C 128.154 123.619,128.278 123.755,128.350 124.873 L 128.419 125.943 131.232 125.943 L 134.046 125.943 134.046 115.250 L 134.046 104.558 131.063 104.548 L 128.080 104.538 131.007 104.611 M143.419 104.704 C 143.003 104.824,142.705 104.964,142.757 105.015 C 142.870 105.129,144.513 104.692,144.513 104.548 C 144.513 104.415,144.335 104.441,143.419 104.704 M283.343 104.605 C 283.621 104.658,284.077 104.658,284.356 104.605 C 284.634 104.551,284.406 104.507,283.849 104.507 C 283.292 104.507,283.064 104.551,283.343 104.605 M306.303 104.605 C 306.581 104.658,307.037 104.658,307.316 104.605 C 307.594 104.551,307.366 104.507,306.809 104.507 C 306.252 104.507,306.024 104.551,306.303 104.605 M345.245 104.605 C 345.523 104.658,345.979 104.658,346.258 104.605 C 346.536 104.551,346.308 104.507,345.751 104.507 C 345.194 104.507,344.966 104.551,345.245 104.605 M26.787 105.684 C 26.240 106.241,25.843 106.697,25.905 106.697 C 25.967 106.697,26.465 106.241,27.012 105.684 C 27.559 105.127,27.955 104.671,27.893 104.671 C 27.831 104.671,27.333 105.127,26.787 105.684 M152.167 104.896 C 152.936 105.142,153.528 105.142,152.954 104.896 C 152.707 104.789,152.302 104.705,152.054 104.709 C 151.692 104.714,151.714 104.751,152.167 104.896 M281.035 104.902 C 280.735 105.035,280.922 105.057,281.598 104.967 C 282.155 104.894,282.653 104.797,282.705 104.752 C 282.900 104.583,281.465 104.711,281.035 104.902 M284.993 104.752 C 285.045 104.797,285.543 104.894,286.100 104.967 C 286.777 105.057,286.964 105.035,286.663 104.902 C 286.233 104.711,284.798 104.583,284.993 104.752 M304.615 104.826 C 304.831 104.883,305.186 104.883,305.402 104.826 C 305.619 104.769,305.442 104.723,305.008 104.723 C 304.575 104.723,304.398 104.769,304.615 104.826 M307.953 104.752 C 308.005 104.796,308.554 104.891,309.173 104.963 C 309.897 105.046,310.138 105.023,309.848 104.898 C 309.418 104.711,307.758 104.583,307.953 104.752 M343.557 104.826 C 343.773 104.883,344.128 104.883,344.344 104.826 C 344.561 104.769,344.384 104.723,343.950 104.723 C 343.517 104.723,343.340 104.769,343.557 104.826 M346.896 104.752 C 346.947 104.797,347.445 104.894,348.002 104.967 C 348.679 105.057,348.866 105.035,348.565 104.902 C 348.135 104.711,346.700 104.583,346.896 104.752 M41.140 105.501 C 40.539 106.102,40.531 106.103,40.020 105.678 L 39.505 105.250 40.012 105.799 L 40.520 106.348 41.246 105.622 C 41.645 105.223,41.921 104.896,41.859 104.896 C 41.797 104.896,41.473 105.168,41.140 105.501 M127.954 110.748 C 127.954 114.029,127.986 115.371,128.024 113.731 C 128.063 112.091,128.063 109.406,128.024 107.766 C 127.986 106.125,127.954 107.468,127.954 110.748 M270.899 105.171 C 270.838 105.329,270.816 110.169,270.850 115.926 L 270.911 126.393 270.965 115.757 L 271.019 105.121 273.832 105.121 L 276.646 105.121 276.646 106.246 C 276.646 107.557,276.721 107.584,277.772 106.663 C 278.205 106.283,278.348 106.079,278.091 106.209 C 277.833 106.340,277.478 106.621,277.303 106.834 C 277.016 107.182,276.972 107.109,276.871 106.115 L 276.759 105.008 273.884 104.945 C 271.709 104.898,270.983 104.953,270.899 105.171 M328.250 105.061 C 328.838 105.108,329.800 105.108,330.388 105.061 C 330.976 105.015,330.495 104.977,329.319 104.977 C 328.143 104.977,327.662 105.015,328.250 105.061 M352.880 105.058 C 352.820 105.155,354.078 105.203,355.674 105.165 L 358.577 105.096 358.639 114.506 L 358.702 123.917 358.698 114.463 L 358.694 105.008 355.842 104.946 C 354.273 104.911,352.940 104.962,352.880 105.058 M360.833 105.220 C 360.833 105.399,360.933 105.607,361.055 105.682 C 361.182 105.760,361.221 105.672,361.146 105.477 C 361.033 105.182,361.450 105.124,364.131 105.064 L 367.248 104.995 364.041 104.945 C 361.375 104.904,360.833 104.951,360.833 105.220 M380.473 105.063 C 381.308 105.106,382.676 105.106,383.512 105.063 C 384.347 105.020,383.663 104.984,381.992 104.984 C 380.321 104.984,379.637 105.020,380.473 105.063 M109.885 105.693 C 109.507 106.521,109.579 106.698,109.987 105.945 C 110.178 105.594,110.291 105.264,110.240 105.213 C 110.188 105.161,110.029 105.378,109.885 105.693 M311.330 105.430 C 311.562 105.637,312.887 106.246,312.887 106.145 C 312.887 106.016,311.639 105.346,311.397 105.346 C 311.309 105.346,311.278 105.384,311.330 105.430 M340.518 105.700 C 339.645 106.173,339.744 106.337,340.630 105.886 C 341.479 105.454,341.629 105.343,341.343 105.355 C 341.230 105.360,340.858 105.515,340.518 105.700 M74.381 106.528 L 73.720 107.259 74.451 106.598 C 75.133 105.982,75.286 105.796,75.112 105.796 C 75.074 105.796,74.745 106.125,74.381 106.528 M290.143 106.978 C 291.075 107.972,291.277 108.151,291.277 107.982 C 291.277 107.945,290.796 107.464,290.208 106.912 L 289.139 105.909 290.143 106.978 M323.059 107.068 L 322.003 108.114 323.129 107.142 C 323.748 106.607,324.297 106.136,324.348 106.096 C 324.400 106.055,324.369 106.021,324.279 106.021 C 324.189 106.021,323.640 106.492,323.059 107.068 M351.817 106.753 C 352.614 107.621,352.954 107.794,352.954 107.334 C 352.954 107.190,352.885 107.141,352.800 107.226 C 352.716 107.311,352.285 107.049,351.844 106.644 L 351.041 105.909 351.817 106.753 M378.427 106.594 C 378.050 107.422,378.122 107.598,378.530 106.846 C 378.720 106.494,378.834 106.165,378.782 106.113 C 378.731 106.062,378.571 106.278,378.427 106.594 M66.279 107.822 C 67.757 109.486,67.909 109.628,67.360 108.835 C 67.104 108.464,66.508 107.805,66.036 107.372 C 65.352 106.743,65.400 106.833,66.279 107.822 M109.209 107.269 C 108.832 108.097,108.904 108.273,109.312 107.521 C 109.502 107.169,109.616 106.840,109.565 106.788 C 109.513 106.737,109.353 106.953,109.209 107.269 M377.752 108.169 C 377.375 108.997,377.447 109.174,377.854 108.421 C 378.045 108.070,378.159 107.740,378.107 107.689 C 378.056 107.637,377.896 107.854,377.752 108.169 M315.382 108.412 C 315.681 108.798,315.971 109.073,316.026 109.024 C 316.082 108.974,315.837 108.659,315.483 108.322 L 314.839 107.710 315.382 108.412 M383.379 108.620 C 383.002 109.447,383.074 109.624,383.482 108.871 C 383.672 108.520,383.786 108.190,383.735 108.139 C 383.683 108.087,383.523 108.304,383.379 108.620 M146.928 108.885 C 147.328 108.935,148.037 108.936,148.504 108.887 C 148.971 108.838,148.644 108.797,147.777 108.796 C 146.911 108.795,146.528 108.835,146.928 108.885 M57.009 109.334 C 57.351 109.386,57.858 109.385,58.135 109.331 C 58.412 109.278,58.132 109.235,57.513 109.237 C 56.894 109.239,56.667 109.283,57.009 109.334 M137.902 109.679 C 137.724 110.345,137.751 112.333,137.945 112.822 C 138.029 113.034,138.098 112.300,138.098 111.190 C 138.098 108.967,138.096 108.955,137.902 109.679 M346.598 109.557 C 346.878 109.611,347.283 109.609,347.498 109.553 C 347.714 109.496,347.485 109.452,346.989 109.455 C 346.494 109.457,346.318 109.503,346.598 109.557 M24.453 110.319 C 24.375 110.710,24.325 111.600,24.343 112.296 C 24.371 113.399,24.397 113.316,24.544 111.649 C 24.722 109.627,24.689 109.139,24.453 110.319 M281.100 109.808 C 280.888 109.892,281.365 109.961,282.161 109.961 C 282.956 109.961,283.434 109.892,283.222 109.808 C 283.010 109.723,282.532 109.655,282.161 109.655 C 281.790 109.655,281.312 109.723,281.100 109.808 M302.950 110.716 C 302.349 111.318,301.857 111.951,301.858 112.123 C 301.858 112.296,302.049 112.125,302.281 111.743 C 302.514 111.362,303.094 110.729,303.570 110.337 C 304.046 109.944,304.348 109.623,304.240 109.623 C 304.132 109.623,303.552 110.115,302.950 110.716 M349.097 109.969 C 349.514 110.150,349.919 110.295,349.998 110.290 C 350.291 110.274,349.002 109.639,348.678 109.640 C 348.492 109.640,348.681 109.789,349.097 109.969 M362.875 109.961 C 362.875 110.084,363.019 110.439,363.196 110.748 C 363.373 111.058,363.518 111.210,363.518 111.086 C 363.518 110.962,363.373 110.608,363.196 110.298 C 363.019 109.989,362.875 109.837,362.875 109.961 M18.088 111.986 C 18.087 113.101,18.125 113.585,18.172 113.063 C 18.220 112.540,18.220 111.628,18.174 111.037 C 18.127 110.445,18.088 110.872,18.088 111.986 M53.561 110.917 L 52.786 111.761 53.630 110.986 C 54.415 110.264,54.577 110.073,54.405 110.073 C 54.368 110.073,53.988 110.453,53.561 110.917 M79.461 110.635 C 79.170 110.944,78.975 111.235,79.027 111.281 C 79.080 111.327,79.358 111.074,79.646 110.719 C 80.290 109.924,80.177 109.873,79.461 110.635 M310.860 110.917 C 311.155 111.320,311.431 111.649,311.474 111.649 C 311.645 111.649,311.087 110.805,310.718 110.505 C 310.475 110.307,310.529 110.465,310.860 110.917 M351.144 111.311 C 351.687 111.930,352.178 112.487,352.235 112.549 C 352.293 112.611,352.233 112.459,352.103 112.212 C 351.973 111.964,351.481 111.407,351.011 110.974 C 350.199 110.225,350.205 110.241,351.144 111.311 M107.409 111.546 C 107.031 112.374,107.103 112.550,107.511 111.798 C 107.702 111.446,107.815 111.117,107.764 111.065 C 107.712 111.014,107.552 111.230,107.409 111.546 M143.631 111.220 C 143.621 111.418,143.841 111.772,144.119 112.008 C 144.621 112.433,144.623 112.433,144.261 111.986 C 144.061 111.739,143.841 111.384,143.773 111.199 C 143.667 110.912,143.646 110.915,143.631 111.220 M292.455 111.874 C 292.455 112.307,292.501 112.485,292.558 112.268 C 292.615 112.051,292.615 111.697,292.558 111.480 C 292.501 111.263,292.455 111.441,292.455 111.874 M68.693 111.874 C 68.705 112.459,69.059 113.419,69.067 112.887 C 69.071 112.639,68.987 112.234,68.880 111.986 C 68.762 111.711,68.689 111.667,68.693 111.874 M46.064 112.371 C 45.988 112.655,45.935 113.089,45.946 113.337 C 45.957 113.585,46.058 113.392,46.171 112.909 C 46.391 111.974,46.297 111.503,46.064 112.371 M317.427 112.324 C 317.439 112.909,317.793 113.870,317.801 113.337 C 317.804 113.089,317.720 112.684,317.614 112.437 C 317.495 112.161,317.423 112.117,317.427 112.324 M320.641 119.190 C 320.641 123.151,320.671 124.740,320.709 122.721 C 320.746 120.701,320.746 117.460,320.709 115.518 C 320.671 113.576,320.641 115.228,320.641 119.190 M89.627 113.011 C 89.759 113.389,89.908 113.656,89.959 113.605 C 90.071 113.493,89.646 112.324,89.494 112.324 C 89.435 112.324,89.495 112.633,89.627 113.011 M301.520 112.997 C 301.442 113.244,301.441 113.548,301.518 113.673 C 301.682 113.938,312.211 113.995,312.212 113.731 C 312.212 113.638,309.820 113.591,306.896 113.627 L 301.579 113.691 301.722 113.120 C 301.891 112.447,301.726 112.347,301.520 112.997 M292.728 119.527 C 292.728 123.303,292.759 124.848,292.796 122.960 C 292.834 121.072,292.834 117.983,292.796 116.095 C 292.759 114.207,292.728 115.751,292.728 119.527 M62.915 115.250 C 62.915 116.355,62.984 117.086,63.068 116.874 C 63.152 116.662,63.221 115.931,63.221 115.250 C 63.221 114.569,63.152 113.839,63.068 113.627 C 62.984 113.415,62.915 114.145,62.915 115.250 M150.366 113.675 C 150.675 113.774,151.131 113.855,151.379 113.855 C 151.735 113.855,151.712 113.817,151.266 113.675 C 150.957 113.576,150.501 113.495,150.253 113.495 C 149.897 113.495,149.920 113.532,150.366 113.675 M69.157 114.350 C 69.157 114.783,69.204 114.961,69.260 114.744 C 69.317 114.527,69.317 114.173,69.260 113.956 C 69.204 113.739,69.157 113.917,69.157 114.350 M335.016 114.913 C 335.018 115.656,335.060 115.932,335.110 115.528 C 335.160 115.123,335.159 114.515,335.107 114.177 C 335.056 113.839,335.015 114.170,335.016 114.913 M352.574 114.913 C 352.575 115.656,352.617 115.932,352.667 115.528 C 352.717 115.123,352.716 114.515,352.665 114.177 C 352.614 113.839,352.573 114.170,352.574 114.913 M78.207 119.640 C 78.207 122.859,78.239 124.144,78.278 122.497 C 78.316 120.849,78.316 118.215,78.277 116.644 C 78.239 115.073,78.207 116.421,78.207 119.640 M45.756 115.250 C 45.756 115.808,45.800 116.035,45.854 115.757 C 45.908 115.478,45.908 115.023,45.854 114.744 C 45.800 114.465,45.756 114.693,45.756 115.250 M253.060 117.783 L 253.110 121.216 253.179 117.961 C 253.227 115.710,253.333 114.652,253.524 114.532 C 253.714 114.410,253.678 114.356,253.405 114.353 C 253.044 114.350,253.015 114.644,253.060 117.783 M286.649 120.315 C 286.649 123.658,286.680 125.057,286.719 123.424 C 286.757 121.791,286.757 119.056,286.719 117.346 C 286.680 115.636,286.649 116.972,286.649 120.315 M51.825 115.250 C 51.825 115.684,51.871 115.861,51.928 115.644 C 51.984 115.428,51.984 115.073,51.928 114.856 C 51.871 114.640,51.825 114.817,51.825 115.250 M276.969 120.428 C 276.969 123.708,277.001 125.051,277.039 123.410 C 277.078 121.770,277.078 119.086,277.039 117.445 C 277.001 115.805,276.969 117.147,276.969 120.428 M295.394 115.588 C 295.395 116.207,295.439 116.434,295.491 116.091 C 295.542 115.749,295.541 115.243,295.488 114.966 C 295.434 114.689,295.392 114.969,295.394 115.588 M18.587 116.376 C 18.670 116.685,18.832 117.091,18.946 117.276 C 19.091 117.511,19.109 117.442,19.004 117.051 C 18.922 116.742,18.760 116.337,18.645 116.151 C 18.500 115.916,18.482 115.985,18.587 116.376 M45.936 117.295 C 45.945 117.594,46.044 118.042,46.156 118.289 C 46.298 118.603,46.318 118.467,46.223 117.839 C 46.063 116.794,45.913 116.509,45.936 117.295 M143.163 117.051 C 143.472 117.150,143.928 117.231,144.176 117.231 C 144.532 117.231,144.509 117.194,144.063 117.051 C 143.754 116.952,143.298 116.871,143.050 116.871 C 142.694 116.871,142.717 116.909,143.163 117.051 M97.484 117.164 C 97.484 117.288,97.628 117.642,97.805 117.952 C 97.982 118.261,98.127 118.413,98.127 118.289 C 98.127 118.165,97.982 117.811,97.805 117.501 C 97.628 117.192,97.484 117.040,97.484 117.164 M352.054 117.222 C 352.054 117.602,350.912 118.869,350.150 119.333 C 349.774 119.563,349.592 119.751,349.746 119.752 C 350.383 119.753,352.517 117.439,352.185 117.107 C 352.113 117.035,352.054 117.087,352.054 117.222 M372.104 117.389 C 372.104 117.513,372.249 117.867,372.425 118.177 C 372.602 118.486,372.747 118.638,372.747 118.514 C 372.747 118.391,372.602 118.036,372.425 117.727 C 372.249 117.417,372.104 117.265,372.104 117.389 M68.784 118.080 C 68.701 118.410,68.677 118.723,68.730 118.776 C 68.783 118.830,68.894 118.603,68.977 118.273 C 69.059 117.943,69.084 117.630,69.031 117.577 C 68.978 117.524,68.866 117.750,68.784 118.080 M39.605 118.571 L 38.829 119.415 39.674 118.639 C 40.459 117.917,40.621 117.727,40.449 117.727 C 40.412 117.727,40.032 118.106,39.605 118.571 M19.471 118.627 C 19.663 118.998,19.871 119.302,19.933 119.302 C 19.995 119.302,19.888 118.998,19.696 118.627 C 19.504 118.255,19.296 117.952,19.234 117.952 C 19.172 117.952,19.279 118.255,19.471 118.627 M156.513 119.415 C 156.514 120.158,156.556 120.434,156.607 120.030 C 156.657 119.625,156.656 119.017,156.604 118.679 C 156.553 118.341,156.512 118.672,156.513 119.415 M150.625 119.680 C 150.602 120.158,150.394 120.549,149.998 120.862 C 149.672 121.118,149.502 121.328,149.621 121.328 C 150.133 121.328,150.849 120.241,150.754 119.607 C 150.659 118.966,150.658 118.967,150.625 119.680 M378.652 119.649 C 378.275 120.477,378.347 120.654,378.755 119.901 C 378.945 119.550,379.059 119.220,379.007 119.169 C 378.956 119.117,378.796 119.334,378.652 119.649 M112.813 119.865 C 112.809 120.113,112.893 120.518,112.999 120.765 C 113.246 121.339,113.246 120.747,112.999 119.977 C 112.855 119.525,112.818 119.503,112.813 119.865 M92.531 119.865 C 92.531 119.989,92.676 120.343,92.853 120.653 C 93.030 120.962,93.175 121.114,93.175 120.990 C 93.175 120.867,93.030 120.512,92.853 120.203 C 92.676 119.893,92.531 119.741,92.531 119.865 M43.219 120.273 C 43.219 120.312,43.548 120.641,43.950 121.005 L 44.682 121.666 44.021 120.934 C 43.405 120.252,43.219 120.099,43.219 120.273 M121.441 120.887 C 121.876 121.065,124.200 121.187,124.011 121.021 C 123.959 120.976,123.258 120.885,122.454 120.820 C 121.594 120.751,121.176 120.778,121.441 120.887 M315.025 121.778 C 315.635 122.397,316.185 122.904,316.246 122.904 C 316.308 122.904,315.860 122.397,315.250 121.778 C 314.641 121.159,314.091 120.653,314.029 120.653 C 313.967 120.653,314.416 121.159,315.025 121.778 M21.947 122.003 C 22.557 122.622,23.106 123.129,23.168 123.129 C 23.230 123.129,22.782 122.622,22.172 122.003 C 21.562 121.384,21.013 120.878,20.951 120.878 C 20.889 120.878,21.337 121.384,21.947 122.003 M32.589 121.043 C 33.118 121.091,33.929 121.090,34.390 121.042 C 34.851 120.993,34.418 120.954,33.427 120.955 C 32.437 120.956,32.060 120.995,32.589 121.043 M268.178 123.692 C 268.179 125.177,268.215 125.756,268.259 124.977 C 268.303 124.198,268.303 122.983,268.258 122.276 C 268.214 121.569,268.178 122.206,268.178 123.692 M93.207 121.441 C 93.207 121.564,93.351 121.919,93.528 122.228 C 93.705 122.538,93.850 122.690,93.850 122.566 C 93.850 122.442,93.705 122.088,93.528 121.778 C 93.351 121.469,93.207 121.317,93.207 121.441 M144.513 121.564 C 145.049 121.725,148.698 121.826,148.227 121.666 C 148.104 121.625,147.091 121.546,145.976 121.493 C 144.862 121.439,144.204 121.471,144.513 121.564 M297.299 121.891 C 297.556 122.262,298.152 122.921,298.623 123.354 C 299.308 123.983,299.259 123.893,298.380 122.904 C 296.903 121.240,296.751 121.098,297.299 121.891 M306.984 121.718 C 307.513 121.766,308.324 121.765,308.785 121.717 C 309.246 121.668,308.813 121.630,307.822 121.630 C 306.832 121.631,306.455 121.671,306.984 121.718 M43.542 122.510 L 42.881 123.241 43.613 122.580 C 44.295 121.964,44.448 121.778,44.274 121.778 C 44.235 121.778,43.906 122.107,43.542 122.510 M66.056 122.960 L 65.166 123.917 66.123 123.027 C 67.012 122.199,67.183 122.003,67.012 122.003 C 66.976 122.003,66.545 122.434,66.056 122.960 M113.880 122.641 C 114.001 122.868,114.277 123.197,114.493 123.372 C 114.736 123.570,114.682 123.413,114.351 122.960 C 113.760 122.152,113.538 122.002,113.880 122.641 M351.587 123.298 L 351.041 123.917 351.618 123.410 C 352.399 122.725,352.465 122.757,352.565 123.860 L 352.651 124.817 352.690 123.748 C 352.736 122.490,352.415 122.358,351.587 123.298 M154.418 123.843 C 153.828 124.378,153.687 124.572,154.080 124.308 C 154.701 123.889,155.733 122.891,155.522 122.913 C 155.472 122.919,154.975 123.337,154.418 123.843 M358.414 125.042 C 358.416 125.537,358.462 125.714,358.516 125.434 C 358.570 125.154,358.568 124.748,358.511 124.533 C 358.455 124.318,358.411 124.547,358.414 125.042 M51.773 125.042 C 52.082 125.219,52.437 125.364,52.560 125.364 C 52.684 125.364,52.532 125.219,52.223 125.042 C 51.913 124.865,51.559 124.721,51.435 124.721 C 51.311 124.721,51.463 124.865,51.773 125.042 M347.214 124.930 L 346.089 125.084 347.102 125.104 C 347.659 125.114,348.317 125.036,348.565 124.930 C 349.079 124.709,348.825 124.709,347.214 124.930 M343.669 125.089 C 343.948 125.142,344.403 125.142,344.682 125.089 C 344.961 125.035,344.733 124.991,344.176 124.991 C 343.618 124.991,343.391 125.035,343.669 125.089 M37.141 125.830 C 36.689 125.975,36.667 126.012,37.029 126.017 C 37.276 126.021,37.681 125.936,37.929 125.830 C 38.503 125.584,37.911 125.584,37.141 125.830 M53.911 125.820 C 54.343 126.015,55.549 126.143,55.355 125.972 C 55.304 125.927,54.856 125.828,54.361 125.753 C 53.734 125.657,53.597 125.677,53.911 125.820 M95.189 125.893 C 95.286 125.989,96.775 126.040,98.498 126.005 L 101.632 125.941 98.322 125.829 C 96.502 125.768,95.092 125.796,95.189 125.893 M142.037 125.819 C 142.600 126.010,143.996 126.130,143.819 125.971 C 143.768 125.925,143.219 125.829,142.600 125.758 C 141.841 125.670,141.658 125.690,142.037 125.819 M149.803 125.830 C 149.190 125.986,149.180 126.003,149.690 126.013 C 150.000 126.019,150.456 125.936,150.703 125.830 C 151.258 125.592,150.740 125.592,149.803 125.830 M302.983 125.943 C 304.010 126.338,304.415 126.333,303.545 125.934 C 303.174 125.764,302.718 125.628,302.532 125.632 C 302.347 125.636,302.549 125.776,302.983 125.943 M369.684 126.899 C 369.450 127.647,369.457 127.693,369.741 127.306 C 370.010 126.940,370.196 126.055,370.004 126.055 C 369.973 126.055,369.828 126.435,369.684 126.899 M32.470 126.441 C 32.811 126.493,33.368 126.493,33.708 126.441 C 34.049 126.390,33.770 126.348,33.089 126.348 C 32.409 126.348,32.130 126.390,32.470 126.441 M375.501 127.078 C 375.124 127.905,375.196 128.082,375.603 127.330 C 375.794 126.978,375.908 126.649,375.856 126.597 C 375.805 126.546,375.645 126.762,375.501 127.078 M368.539 128.538 C 368.135 128.906,367.888 129.207,367.990 129.207 C 368.093 129.207,368.468 128.903,368.824 128.531 C 369.651 127.668,369.491 127.671,368.539 128.538 M342.262 128.981 C 342.510 129.088,342.864 129.175,343.050 129.175 C 343.263 129.175,343.221 129.103,342.938 128.981 C 342.690 128.875,342.335 128.788,342.150 128.788 C 341.937 128.788,341.978 128.859,342.262 128.981 M374.451 129.432 C 374.259 129.803,374.153 130.107,374.215 130.107 C 374.277 130.107,374.484 129.803,374.676 129.432 C 374.868 129.060,374.975 128.756,374.913 128.756 C 374.851 128.756,374.643 129.060,374.451 129.432 M372.526 132.077 L 371.750 132.921 372.594 132.145 C 373.380 131.423,373.542 131.232,373.370 131.232 C 373.332 131.232,372.953 131.612,372.526 132.077 M338.998 132.995 C 339.184 133.110,339.589 133.272,339.899 133.354 C 340.290 133.459,340.358 133.441,340.124 133.296 C 339.938 133.182,339.533 133.020,339.223 132.937 C 338.832 132.833,338.764 132.850,338.998 132.995 M368.936 133.934 C 368.473 134.082,368.453 134.117,368.824 134.133 C 369.071 134.143,369.426 134.054,369.612 133.934 C 370.006 133.679,369.732 133.679,368.936 133.934 M343.106 134.089 C 343.323 134.145,343.678 134.145,343.894 134.089 C 344.111 134.032,343.934 133.986,343.500 133.986 C 343.067 133.986,342.890 134.032,343.106 134.089 M345.582 134.324 C 346.171 134.371,347.133 134.371,347.721 134.324 C 348.309 134.278,347.828 134.240,346.652 134.240 C 345.476 134.240,344.994 134.278,345.582 134.324 M365.724 134.321 C 366.123 134.371,366.832 134.372,367.299 134.323 C 367.766 134.274,367.440 134.234,366.573 134.233 C 365.706 134.232,365.324 134.271,365.724 134.321 " stroke="none" fill="#7f8587" fill-rule="evenodd"></path><path id="path4" d="M200.619 83.448 C 200.959 83.499,201.517 83.499,201.857 83.448 C 202.198 83.396,201.919 83.354,201.238 83.354 C 200.557 83.354,200.279 83.396,200.619 83.448 M197.918 83.667 C 198.134 83.723,198.489 83.723,198.706 83.667 C 198.922 83.610,198.745 83.564,198.312 83.564 C 197.878 83.564,197.701 83.610,197.918 83.667 M195.498 83.962 C 194.891 84.116,194.880 84.134,195.385 84.138 C 195.695 84.140,196.201 84.061,196.511 83.962 C 197.268 83.719,196.450 83.719,195.498 83.962 M205.853 83.962 C 206.224 84.056,206.781 84.134,207.091 84.134 C 207.593 84.134,207.580 84.115,206.978 83.962 C 206.607 83.867,206.050 83.790,205.740 83.790 C 205.238 83.790,205.250 83.808,205.853 83.962 M192.491 84.670 C 192.075 84.790,191.778 84.931,191.832 84.985 C 191.885 85.038,192.377 84.941,192.925 84.769 C 194.045 84.418,193.667 84.332,192.491 84.670 M209.679 84.862 C 209.927 84.969,210.281 85.056,210.467 85.056 C 210.680 85.056,210.638 84.984,210.355 84.862 C 210.107 84.756,209.752 84.669,209.567 84.669 C 209.354 84.669,209.395 84.740,209.679 84.862 M189.983 85.650 C 189.248 86.070,189.505 86.075,190.464 85.659 C 190.880 85.478,191.069 85.330,190.884 85.329 C 190.698 85.329,190.293 85.473,189.983 85.650 M211.367 85.388 C 211.367 85.446,211.694 85.607,212.094 85.747 C 212.493 85.886,212.721 85.907,212.600 85.794 C 212.344 85.554,211.367 85.232,211.367 85.388 M214.519 86.764 C 214.519 86.826,214.823 87.034,215.194 87.226 C 215.566 87.418,215.869 87.524,215.869 87.462 C 215.869 87.400,215.566 87.193,215.194 87.001 C 214.823 86.808,214.519 86.702,214.519 86.764 M186.775 87.242 C 185.934 87.698,185.985 87.889,186.832 87.451 C 187.203 87.259,187.507 87.054,187.507 86.995 C 187.507 86.850,187.483 86.858,186.775 87.242 M184.850 88.483 C 184.331 88.865,183.905 89.226,183.905 89.285 C 183.905 89.344,184.361 89.065,184.918 88.665 C 185.829 88.010,186.069 87.788,185.863 87.788 C 185.826 87.788,185.370 88.101,184.850 88.483 M217.558 88.617 C 218.350 89.368,220.145 90.724,220.138 90.567 C 220.133 90.462,219.656 90.023,219.079 89.589 C 217.977 88.762,217.161 88.240,217.558 88.617 M180.338 92.403 C 179.213 93.580,178.183 94.770,178.048 95.048 C 177.913 95.327,178.135 95.149,178.540 94.654 C 178.946 94.159,180.033 92.968,180.956 92.009 C 181.878 91.050,182.577 90.264,182.508 90.264 C 182.439 90.264,181.463 91.227,180.338 92.403 M221.497 91.953 C 222.169 92.634,222.770 93.191,222.832 93.191 C 222.894 93.191,222.394 92.634,221.722 91.953 C 221.050 91.272,220.449 90.715,220.387 90.715 C 220.325 90.715,220.824 91.272,221.497 91.953 M223.513 94.260 C 223.931 94.786,224.314 95.217,224.364 95.217 C 224.523 95.217,223.558 93.950,223.148 93.621 C 222.931 93.446,223.095 93.734,223.513 94.260 M225.232 96.624 C 225.689 97.335,226.105 97.918,226.156 97.918 C 226.307 97.918,225.492 96.613,224.924 95.945 C 224.636 95.606,224.775 95.912,225.232 96.624 M30.051 97.676 C 29.679 97.762,30.692 97.793,32.302 97.745 C 33.911 97.697,35.329 97.624,35.453 97.581 C 35.887 97.431,30.719 97.523,30.051 97.676 M35.809 97.775 C 35.861 97.821,36.308 97.920,36.804 97.995 C 37.431 98.091,37.568 98.071,37.254 97.928 C 36.822 97.733,35.616 97.605,35.809 97.775 M186.982 97.843 C 186.899 97.925,186.832 98.888,186.832 99.981 L 186.832 101.970 201.238 101.970 L 215.644 101.970 215.598 99.887 L 215.552 97.805 215.477 99.775 L 215.402 101.745 201.229 101.745 L 187.057 101.745 187.057 99.833 L 187.057 97.921 201.182 97.862 L 215.307 97.802 201.219 97.747 C 193.471 97.717,187.064 97.760,186.982 97.843 M246.763 97.879 C 246.539 98.021,246.492 101.041,246.537 112.226 L 246.595 126.393 257.513 126.393 L 268.430 126.393 268.430 123.692 L 268.430 120.990 260.889 120.986 L 253.348 120.981 260.833 121.045 L 268.317 121.109 268.317 123.695 L 268.317 126.280 257.511 126.280 L 246.705 126.280 246.763 112.155 L 246.820 98.030 257.322 98.030 C 263.098 98.030,267.777 97.954,267.720 97.862 C 267.579 97.634,247.122 97.651,246.763 97.879 M175.340 99.516 C 174.959 100.272,174.684 100.927,174.729 100.972 C 174.775 101.018,175.135 100.400,175.530 99.599 C 175.925 98.798,176.200 98.143,176.141 98.143 C 176.082 98.143,175.722 98.761,175.340 99.516 M226.238 98.255 C 226.238 98.379,226.387 98.677,226.569 98.918 C 226.751 99.158,226.899 99.253,226.899 99.129 C 226.899 99.006,226.751 98.708,226.569 98.467 C 226.387 98.227,226.238 98.132,226.238 98.255 M227.241 100.326 C 227.578 101.134,227.800 101.498,227.800 101.247 C 227.800 101.004,227.116 99.494,227.006 99.494 C 226.944 99.494,227.050 99.868,227.241 100.326 M43.388 101.316 C 44.549 102.539,44.548 102.519,43.504 103.648 L 42.664 104.558 43.660 103.611 C 44.807 102.521,44.755 102.184,43.251 100.970 C 42.465 100.336,42.471 100.351,43.388 101.316 M174.251 101.995 C 174.113 102.392,174.038 102.757,174.087 102.805 C 174.135 102.854,174.288 102.568,174.426 102.170 C 174.565 101.772,174.639 101.407,174.591 101.359 C 174.543 101.311,174.390 101.597,174.251 101.995 M20.729 103.264 C 20.176 104.073,20.142 104.169,20.590 103.658 C 21.185 102.978,21.696 102.195,21.543 102.195 C 21.498 102.195,21.132 102.676,20.729 103.264 M32.470 103.259 C 32.935 103.308,33.694 103.308,34.159 103.259 C 34.623 103.211,34.243 103.171,33.315 103.171 C 32.386 103.171,32.006 103.211,32.470 103.259 M28.797 104.215 C 28.354 104.449,27.850 104.824,27.675 105.049 C 27.375 105.436,27.382 105.439,27.804 105.092 C 28.049 104.890,28.655 104.514,29.150 104.257 C 29.645 104.000,29.949 103.790,29.826 103.790 C 29.702 103.790,29.239 103.982,28.797 104.215 M173.454 104.349 C 173.372 104.679,173.347 104.992,173.400 105.045 C 173.453 105.099,173.565 104.872,173.647 104.542 C 173.730 104.212,173.755 103.899,173.701 103.846 C 173.648 103.793,173.537 104.019,173.454 104.349 M55.500 104.191 C 55.135 104.269,56.092 104.333,57.625 104.333 C 59.159 104.333,60.115 104.269,59.751 104.191 C 59.386 104.113,58.430 104.049,57.625 104.049 C 56.820 104.049,55.864 104.113,55.500 104.191 M78.559 104.203 C 78.250 104.292,79.111 104.327,80.473 104.280 C 83.738 104.166,84.187 104.049,81.373 104.044 C 80.135 104.042,78.869 104.114,78.559 104.203 M145.316 104.191 C 144.952 104.269,146.056 104.333,147.769 104.333 C 149.616 104.333,150.525 104.270,150.005 104.177 C 148.939 103.988,146.222 103.996,145.316 104.191 M228.732 104.221 C 228.732 104.406,228.819 104.761,228.925 105.008 C 229.047 105.292,229.119 105.334,229.119 105.121 C 229.119 104.935,229.032 104.581,228.925 104.333 C 228.803 104.049,228.732 104.008,228.732 104.221 M19.210 105.698 C 18.895 106.387,18.676 106.990,18.724 107.038 C 18.772 107.086,19.078 106.522,19.404 105.785 C 19.729 105.049,19.948 104.446,19.890 104.446 C 19.831 104.446,19.526 105.009,19.210 105.698 M39.280 105.408 C 40.656 106.684,40.449 106.685,41.653 105.402 L 42.656 104.333 41.588 105.335 L 40.521 106.337 39.788 105.661 C 39.384 105.289,38.852 104.845,38.604 104.675 C 38.357 104.504,38.661 104.834,39.280 105.408 M112.425 111.649 C 112.425 115.672,112.455 117.319,112.493 115.307 C 112.530 113.295,112.530 110.003,112.493 107.991 C 112.455 105.979,112.425 107.625,112.425 111.649 M118.726 110.861 C 118.726 114.451,118.757 115.889,118.795 114.055 C 118.833 112.221,118.833 109.284,118.795 107.527 C 118.757 105.770,118.726 107.271,118.726 110.861 M134.046 115.250 C 134.046 121.169,134.122 125.965,134.215 125.908 C 134.308 125.850,134.384 121.055,134.384 115.250 C 134.384 109.446,134.308 104.650,134.215 104.593 C 134.122 104.536,134.046 109.331,134.046 115.250 M61.696 104.760 C 61.887 104.941,63.478 105.544,63.478 105.436 C 63.478 105.374,63.126 105.176,62.697 104.997 C 61.941 104.681,61.503 104.577,61.696 104.760 M141.671 105.213 C 141.036 105.508,140.434 105.887,140.333 106.055 C 140.185 106.301,140.215 106.306,140.493 106.082 C 140.681 105.929,141.384 105.555,142.055 105.251 C 142.726 104.946,143.174 104.692,143.050 104.686 C 142.926 104.680,142.306 104.917,141.671 105.213 M153.292 105.008 C 154.320 105.404,154.724 105.398,153.855 105.000 C 153.483 104.830,153.028 104.694,152.842 104.698 C 152.656 104.702,152.859 104.842,153.292 105.008 M270.705 105.027 C 270.487 105.596,270.546 105.688,270.857 105.263 C 271.110 104.916,271.490 104.877,274.008 104.939 C 275.583 104.977,276.872 104.932,276.872 104.840 C 276.871 104.465,270.850 104.648,270.705 105.027 M280.135 105.000 C 279.266 105.398,279.670 105.404,280.698 105.008 C 281.131 104.842,281.334 104.702,281.148 104.698 C 280.962 104.694,280.506 104.830,280.135 105.000 M287.001 105.008 C 288.028 105.404,288.433 105.398,287.563 105.000 C 287.192 104.830,286.736 104.694,286.550 104.698 C 286.365 104.702,286.567 104.842,287.001 105.008 M303.095 104.896 C 302.522 105.142,303.113 105.142,303.883 104.896 C 304.335 104.751,304.357 104.714,303.995 104.709 C 303.748 104.705,303.343 104.789,303.095 104.896 M309.848 104.896 C 310.096 105.002,310.450 105.089,310.636 105.089 C 310.849 105.089,310.807 105.018,310.523 104.896 C 310.276 104.789,309.921 104.702,309.736 104.702 C 309.523 104.702,309.564 104.774,309.848 104.896 M328.593 104.836 C 329.123 104.883,329.933 104.883,330.394 104.834 C 330.855 104.786,330.422 104.747,329.432 104.748 C 328.441 104.749,328.064 104.788,328.593 104.836 M348.903 105.008 C 349.930 105.404,350.335 105.398,349.465 105.000 C 349.094 104.830,348.638 104.694,348.452 104.698 C 348.267 104.702,348.469 104.842,348.903 105.008 M352.877 104.840 C 352.819 104.932,354.130 105.008,355.790 105.008 C 357.449 105.008,358.807 104.932,358.807 104.840 C 358.807 104.747,357.496 104.671,355.894 104.671 C 354.292 104.671,352.934 104.747,352.877 104.840 M360.626 105.065 C 360.636 105.300,360.689 105.345,360.757 105.177 C 360.982 104.620,367.073 104.795,367.254 105.363 C 367.335 105.620,367.451 105.781,367.512 105.720 C 367.573 105.659,367.509 105.398,367.371 105.140 C 367.014 104.473,360.596 104.401,360.626 105.065 M381.959 104.839 L 384.964 104.909 384.822 105.522 C 384.716 105.977,384.738 106.047,384.908 105.796 C 385.603 104.769,385.334 104.668,382.048 104.720 L 378.953 104.769 381.959 104.839 M331.626 105.051 C 331.843 105.108,332.198 105.108,332.414 105.051 C 332.631 104.994,332.454 104.948,332.020 104.948 C 331.587 104.948,331.410 104.994,331.626 105.051 M83.866 105.571 C 83.948 105.881,84.110 106.286,84.225 106.472 C 84.370 106.706,84.388 106.638,84.283 106.246 C 84.200 105.937,84.038 105.532,83.924 105.346 C 83.779 105.111,83.761 105.180,83.866 105.571 M74.619 106.052 C 74.177 106.441,73.709 106.972,73.580 107.234 C 73.451 107.496,73.609 107.388,73.930 106.994 C 74.252 106.601,74.792 106.072,75.130 105.819 C 75.469 105.567,75.673 105.357,75.585 105.353 C 75.496 105.349,75.062 105.664,74.619 106.052 M155.149 105.700 C 155.829 106.069,155.885 106.259,155.531 106.993 C 155.301 107.468,155.305 107.470,155.643 107.048 C 156.152 106.412,156.073 105.905,155.420 105.607 C 154.603 105.235,154.413 105.301,155.149 105.700 M301.125 105.700 C 300.253 106.173,300.352 106.337,301.238 105.886 C 302.087 105.454,302.237 105.343,301.951 105.355 C 301.837 105.360,301.466 105.515,301.125 105.700 M334.721 105.724 C 335.781 106.183,335.773 106.163,335.154 106.866 L 334.609 107.485 335.228 106.939 C 335.568 106.639,335.847 106.304,335.847 106.196 C 335.847 106.000,334.446 105.329,334.110 105.364 C 334.013 105.375,334.288 105.536,334.721 105.724 M352.767 106.232 L 352.729 107.231 351.998 106.570 L 351.266 105.909 351.929 106.642 C 352.709 107.505,353.021 107.332,352.895 106.107 L 352.805 105.234 352.767 106.232 M26.360 106.367 C 25.976 106.804,25.661 107.230,25.661 107.312 C 25.661 107.395,25.738 107.366,25.832 107.248 C 25.926 107.131,26.299 106.705,26.662 106.303 C 27.024 105.900,27.262 105.571,27.190 105.571 C 27.118 105.571,26.744 105.929,26.360 106.367 M193.005 106.323 C 192.941 106.488,192.919 107.425,192.956 108.405 L 193.022 110.186 201.125 110.190 L 209.229 110.194 201.182 110.131 L 193.134 110.068 193.134 108.160 L 193.134 106.252 201.294 106.190 L 209.454 106.128 201.287 106.075 C 194.637 106.031,193.099 106.077,193.005 106.323 M290.152 106.809 C 290.572 107.243,290.966 107.597,291.028 107.597 C 291.090 107.597,290.797 107.243,290.377 106.809 C 289.957 106.376,289.563 106.021,289.501 106.021 C 289.439 106.021,289.732 106.376,290.152 106.809 M139.421 106.753 C 138.756 107.511,138.368 108.047,138.483 108.047 C 138.539 108.047,138.911 107.642,139.309 107.147 C 140.081 106.185,140.160 105.910,139.421 106.753 M298.668 107.539 C 297.922 108.250,297.208 109.035,297.081 109.284 C 296.954 109.532,297.221 109.309,297.675 108.788 C 298.128 108.267,298.919 107.482,299.431 107.044 C 299.943 106.605,300.286 106.246,300.193 106.246 C 300.099 106.246,299.413 106.828,298.668 107.539 M313.337 106.286 C 313.399 106.341,314.057 106.934,314.800 107.603 L 316.151 108.821 315.138 107.741 C 314.581 107.148,313.922 106.555,313.675 106.424 C 313.427 106.293,313.275 106.231,313.337 106.286 M322.779 107.091 L 322.003 107.935 322.847 107.159 C 323.312 106.732,323.692 106.352,323.692 106.315 C 323.692 106.143,323.501 106.305,322.779 107.091 M338.071 107.306 C 337.448 107.889,336.834 108.573,336.707 108.826 C 336.580 109.078,336.794 108.910,337.183 108.450 C 337.572 107.991,338.264 107.307,338.721 106.931 C 339.178 106.554,339.473 106.246,339.378 106.246 C 339.282 106.246,338.694 106.723,338.071 107.306 M66.179 107.485 C 66.599 107.918,66.993 108.272,67.055 108.272 C 67.117 108.272,66.824 107.918,66.404 107.485 C 65.984 107.051,65.590 106.697,65.528 106.697 C 65.466 106.697,65.759 107.051,66.179 107.485 M229.539 108.160 C 229.607 109.026,229.699 109.778,229.744 109.829 C 229.894 110.002,229.775 107.944,229.595 107.259 C 229.487 106.850,229.465 107.204,229.539 108.160 M87.236 107.653 C 87.320 107.932,87.481 108.259,87.595 108.380 C 87.708 108.501,87.687 108.273,87.547 107.873 C 87.262 107.056,86.999 106.870,87.236 107.653 M25.248 108.169 C 25.104 108.485,24.990 108.866,24.995 109.015 C 25.000 109.163,25.153 108.941,25.336 108.520 C 25.721 107.633,25.639 107.310,25.248 108.169 M172.571 108.779 C 172.389 110.293,172.413 114.610,172.611 115.926 C 172.695 116.483,172.763 114.837,172.763 112.268 C 172.763 107.059,172.768 107.143,172.571 108.779 M361.749 107.710 C 361.749 107.833,361.894 108.188,362.071 108.497 C 362.248 108.807,362.393 108.959,362.393 108.835 C 362.393 108.711,362.248 108.357,362.071 108.047 C 361.894 107.738,361.749 107.586,361.749 107.710 M108.760 108.711 C 108.629 109.089,108.569 109.398,108.627 109.398 C 108.779 109.398,109.204 108.229,109.093 108.117 C 109.041 108.066,108.892 108.333,108.760 108.711 M291.659 108.832 C 291.865 109.264,292.073 109.577,292.122 109.529 C 292.225 109.426,291.542 108.047,291.388 108.047 C 291.331 108.047,291.453 108.401,291.659 108.832 M368.828 109.105 C 369.165 109.912,369.387 110.277,369.387 110.026 C 369.387 109.783,368.703 108.272,368.593 108.272 C 368.531 108.272,368.637 108.647,368.828 109.105 M146.827 109.113 C 147.419 109.160,148.331 109.159,148.853 109.112 C 149.376 109.065,148.891 109.027,147.777 109.028 C 146.663 109.028,146.235 109.067,146.827 109.113 M383.154 109.520 C 382.777 110.348,382.849 110.524,383.257 109.772 C 383.447 109.420,383.561 109.091,383.509 109.039 C 383.458 108.988,383.298 109.204,383.154 109.520 M306.303 109.332 C 306.581 109.385,307.037 109.385,307.316 109.332 C 307.594 109.278,307.366 109.234,306.809 109.234 C 306.252 109.234,306.024 109.278,306.303 109.332 M55.599 109.633 C 55.353 109.800,55.444 109.821,55.937 109.711 C 56.765 109.526,56.944 109.397,56.368 109.401 C 56.131 109.403,55.785 109.508,55.599 109.633 M81.730 109.479 C 81.781 109.524,82.532 109.614,83.399 109.680 C 84.315 109.750,84.739 109.725,84.412 109.621 C 83.855 109.445,81.548 109.322,81.730 109.479 M151.716 109.736 C 152.744 110.131,153.148 110.125,152.279 109.727 C 151.908 109.557,151.452 109.421,151.266 109.425 C 151.080 109.429,151.283 109.569,151.716 109.736 M266.024 111.987 C 265.985 113.411,266.030 114.576,266.123 114.576 C 266.216 114.575,266.292 113.410,266.292 111.986 C 266.292 108.639,266.114 108.640,266.024 111.987 M346.140 109.785 C 346.540 109.835,347.249 109.836,347.716 109.787 C 348.183 109.739,347.856 109.698,346.989 109.697 C 346.123 109.696,345.741 109.736,346.140 109.785 M281.770 110.007 C 282.050 110.061,282.455 110.059,282.670 110.003 C 282.885 109.946,282.656 109.902,282.161 109.905 C 281.666 109.907,281.490 109.953,281.770 110.007 M292.209 110.073 C 292.209 110.259,292.297 110.613,292.403 110.861 C 292.525 111.145,292.596 111.186,292.596 110.974 C 292.596 110.788,292.509 110.433,292.403 110.186 C 292.281 109.902,292.209 109.860,292.209 110.073 M79.758 110.580 C 79.507 110.858,79.221 111.238,79.123 111.424 C 78.933 111.782,78.984 111.733,79.896 110.692 C 80.195 110.352,80.388 110.073,80.326 110.073 C 80.264 110.073,80.008 110.301,79.758 110.580 M153.214 110.355 C 153.272 110.447,153.515 110.523,153.756 110.523 C 153.996 110.523,154.192 110.447,154.192 110.355 C 154.192 110.262,153.949 110.186,153.651 110.186 C 153.354 110.186,153.157 110.262,153.214 110.355 M229.908 112.212 C 229.908 113.450,229.946 113.927,229.992 113.273 C 230.037 112.619,230.037 111.606,229.991 111.022 C 229.944 110.438,229.907 110.974,229.908 112.212 M279.741 110.427 C 278.868 110.900,278.967 111.064,279.854 110.613 C 280.702 110.182,280.852 110.070,280.566 110.082 C 280.453 110.087,280.082 110.242,279.741 110.427 M302.970 110.917 L 302.195 111.761 303.039 110.986 C 303.503 110.559,303.883 110.179,303.883 110.142 C 303.883 109.970,303.692 110.132,302.970 110.917 M329.375 110.305 C 328.611 110.612,328.768 110.760,329.563 110.483 C 329.945 110.350,330.832 110.296,331.533 110.364 C 332.341 110.442,332.602 110.419,332.245 110.302 C 331.487 110.054,329.997 110.055,329.375 110.305 M343.694 110.537 L 343.163 111.000 343.838 110.605 C 344.727 110.084,344.740 110.073,344.463 110.073 C 344.332 110.073,343.986 110.282,343.694 110.537 M60.570 110.355 C 60.622 110.385,60.968 110.664,61.339 110.974 L 62.015 111.536 61.469 110.917 C 61.169 110.577,60.823 110.298,60.700 110.298 C 60.577 110.298,60.519 110.324,60.570 110.355 M68.387 110.636 C 68.501 110.884,68.651 111.238,68.719 111.424 C 68.828 111.715,68.847 111.714,68.862 111.410 C 68.872 111.218,68.723 110.863,68.530 110.623 C 68.186 110.193,68.183 110.193,68.387 110.636 M310.227 110.554 C 310.436 110.723,310.828 111.114,311.099 111.424 C 311.467 111.845,311.451 111.792,311.038 111.211 C 310.733 110.784,310.341 110.393,310.166 110.341 C 309.953 110.278,309.973 110.348,310.227 110.554 M320.665 111.099 C 320.581 111.550,320.556 111.965,320.611 112.020 C 320.666 112.075,320.781 111.750,320.865 111.299 C 320.950 110.847,320.974 110.432,320.919 110.377 C 320.864 110.322,320.750 110.647,320.665 111.099 M369.403 110.411 C 369.403 110.535,369.547 110.889,369.724 111.199 C 369.901 111.508,370.046 111.660,370.046 111.536 C 370.046 111.412,369.901 111.058,369.724 110.748 C 369.547 110.439,369.403 110.287,369.403 110.411 M17.857 111.986 C 17.858 112.853,17.898 113.180,17.947 112.713 C 17.996 112.246,17.995 111.537,17.945 111.137 C 17.896 110.738,17.856 111.120,17.857 111.986 M24.611 112.099 C 24.611 113.028,24.651 113.407,24.700 112.943 C 24.748 112.479,24.748 111.719,24.700 111.255 C 24.651 110.791,24.611 111.171,24.611 112.099 M382.479 111.096 C 382.102 111.923,382.174 112.100,382.581 111.348 C 382.772 110.996,382.886 110.667,382.834 110.615 C 382.783 110.564,382.623 110.780,382.479 111.096 M72.132 117.952 C 72.132 121.975,72.163 123.621,72.200 121.609 C 72.237 119.598,72.237 116.306,72.200 114.294 C 72.163 112.282,72.132 113.928,72.132 117.952 M328.150 111.142 C 327.754 111.604,327.456 112.099,327.575 112.099 C 327.621 112.099,327.883 111.795,328.158 111.424 C 328.701 110.690,328.695 110.507,328.150 111.142 M363.100 110.861 C 363.100 110.985,363.245 111.339,363.421 111.649 C 363.598 111.958,363.743 112.110,363.743 111.986 C 363.743 111.863,363.598 111.508,363.421 111.199 C 363.245 110.889,363.100 110.737,363.100 110.861 M342.375 111.649 C 342.110 112.020,341.945 112.324,342.006 112.324 C 342.068 112.324,342.335 112.020,342.600 111.649 C 342.864 111.277,343.030 110.974,342.968 110.974 C 342.906 110.974,342.639 111.277,342.375 111.649 M292.680 112.099 C 292.680 112.532,292.727 112.710,292.783 112.493 C 292.840 112.276,292.840 111.922,292.783 111.705 C 292.727 111.488,292.680 111.666,292.680 112.099 M295.683 112.228 C 295.600 112.558,295.576 112.871,295.629 112.924 C 295.682 112.977,295.793 112.750,295.876 112.421 C 295.959 112.091,295.983 111.777,295.930 111.724 C 295.877 111.671,295.766 111.898,295.683 112.228 M335.059 112.549 C 334.973 113.061,334.949 113.527,335.007 113.585 C 335.064 113.643,335.179 113.268,335.262 112.752 C 335.344 112.236,335.368 111.770,335.314 111.716 C 335.260 111.662,335.146 112.037,335.059 112.549 M311.555 112.141 C 311.545 112.225,311.635 112.555,311.756 112.872 L 311.975 113.450 306.935 113.450 C 303.113 113.450,301.867 113.382,301.781 113.168 C 301.713 113.000,301.660 113.045,301.650 113.281 C 301.633 113.645,302.021 113.675,306.796 113.675 C 312.335 113.675,312.318 113.678,311.870 112.662 C 311.707 112.290,311.565 112.056,311.555 112.141 M381.804 112.671 C 381.426 113.499,381.498 113.676,381.906 112.923 C 382.097 112.572,382.210 112.242,382.159 112.191 C 382.107 112.139,381.948 112.356,381.804 112.671 M95.930 113.011 C 96.061 113.389,96.211 113.656,96.262 113.605 C 96.373 113.493,95.949 112.324,95.797 112.324 C 95.738 112.324,95.798 112.633,95.930 113.011 M100.881 112.897 C 100.504 113.724,100.575 113.901,100.983 113.148 C 101.174 112.797,101.287 112.467,101.236 112.416 C 101.184 112.364,101.025 112.581,100.881 112.897 M352.081 113.005 C 352.422 114.013,352.614 114.208,352.407 113.337 C 352.319 112.966,352.150 112.563,352.032 112.442 C 351.914 112.321,351.936 112.574,352.081 113.005 M137.857 113.112 C 137.945 113.483,138.114 113.886,138.233 114.007 C 138.351 114.128,138.329 113.875,138.183 113.444 C 137.842 112.437,137.651 112.241,137.857 113.112 M341.492 113.372 C 341.149 114.607,341.399 117.652,341.810 117.241 C 341.853 117.198,341.776 116.675,341.640 116.079 C 341.461 115.299,341.460 114.668,341.634 113.829 C 341.922 112.439,341.832 112.149,341.492 113.372 M370.550 113.236 C 370.682 113.614,370.831 113.881,370.882 113.830 C 370.994 113.719,370.569 112.549,370.417 112.549 C 370.358 112.549,370.418 112.858,370.550 113.236 M375.502 113.213 C 375.370 113.591,375.310 113.900,375.369 113.900 C 375.521 113.900,375.946 112.731,375.834 112.619 C 375.783 112.568,375.634 112.835,375.502 113.213 M326.987 113.272 C 326.911 113.555,326.858 113.990,326.869 114.237 C 326.879 114.485,326.981 114.293,327.094 113.810 C 327.314 112.874,327.220 112.403,326.987 113.272 M78.399 114.237 C 78.400 114.856,78.444 115.083,78.496 114.741 C 78.548 114.399,78.546 113.892,78.493 113.615 C 78.439 113.339,78.397 113.618,78.399 114.237 M286.433 119.921 L 286.438 126.393 289.533 126.403 L 292.629 126.413 289.593 126.340 L 286.557 126.268 286.492 119.859 L 286.427 113.449 286.433 119.921 M317.896 114.237 C 317.898 114.733,317.944 114.909,317.998 114.629 C 318.052 114.349,318.050 113.944,317.994 113.728 C 317.937 113.513,317.893 113.742,317.896 114.237 M18.024 114.481 C 18.032 114.842,18.129 115.340,18.239 115.588 C 18.372 115.889,18.394 115.702,18.304 115.025 C 18.147 113.832,18.001 113.551,18.024 114.481 M62.875 115.250 C 62.875 116.055,62.915 116.384,62.965 115.982 C 63.015 115.580,63.015 114.921,62.965 114.519 C 62.915 114.116,62.875 114.446,62.875 115.250 M69.402 115.250 C 69.402 116.055,69.443 116.384,69.493 115.982 C 69.543 115.580,69.543 114.921,69.493 114.519 C 69.443 114.116,69.402 114.446,69.402 115.250 M100.205 114.472 C 99.828 115.300,99.900 115.477,100.308 114.724 C 100.498 114.373,100.612 114.043,100.561 113.992 C 100.509 113.940,100.349 114.156,100.205 114.472 M277.195 120.090 C 277.195 123.557,277.227 124.943,277.265 123.172 C 277.303 121.400,277.303 118.564,277.264 116.869 C 277.226 115.174,277.195 116.624,277.195 120.090 M186.983 114.273 C 186.900 114.357,186.832 115.320,186.832 116.413 L 186.832 118.402 201.246 118.402 L 215.661 118.402 215.597 116.320 L 215.532 114.237 201.333 114.180 C 193.524 114.148,187.067 114.190,186.983 114.273 M52.059 115.250 C 52.059 115.808,52.103 116.035,52.157 115.757 C 52.210 115.478,52.210 115.023,52.157 114.744 C 52.103 114.465,52.059 114.693,52.059 115.250 M139.111 115.138 C 139.531 115.571,139.925 115.926,139.987 115.926 C 140.049 115.926,139.756 115.571,139.336 115.138 C 138.916 114.705,138.522 114.350,138.460 114.350 C 138.398 114.350,138.691 114.705,139.111 115.138 M154.305 114.906 C 154.676 115.210,155.076 115.463,155.193 115.467 C 155.310 115.472,155.062 115.222,154.643 114.913 C 153.662 114.189,153.424 114.184,154.305 114.906 M215.419 116.263 L 215.419 118.177 201.238 118.177 L 187.057 118.177 187.057 116.263 L 187.057 114.350 201.238 114.350 L 215.419 114.350 215.419 116.263 M256.682 114.518 C 258.392 114.557,261.127 114.557,262.760 114.518 C 264.393 114.480,262.994 114.448,259.651 114.449 C 256.308 114.449,254.972 114.480,256.682 114.518 M364.675 114.463 C 364.675 114.586,364.820 114.941,364.997 115.250 C 365.174 115.560,365.319 115.712,365.319 115.588 C 365.319 115.464,365.174 115.110,364.997 114.800 C 364.820 114.491,364.675 114.339,364.675 114.463 M229.636 115.250 C 229.614 115.684,229.548 116.443,229.489 116.939 L 229.382 117.839 229.613 116.939 C 229.740 116.443,229.806 115.684,229.760 115.250 L 229.676 114.463 229.636 115.250 M90.280 114.913 C 90.280 115.037,90.425 115.391,90.602 115.701 C 90.779 116.010,90.924 116.162,90.924 116.038 C 90.924 115.914,90.779 115.560,90.602 115.250 C 90.425 114.941,90.280 114.789,90.280 114.913 M326.670 120.703 L 326.618 126.268 323.523 126.337 L 320.428 126.407 323.530 126.456 C 327.261 126.515,326.867 127.232,326.787 120.536 L 326.722 115.138 326.670 120.703 M99.530 116.048 C 99.153 116.876,99.225 117.052,99.633 116.300 C 99.823 115.948,99.937 115.619,99.885 115.567 C 99.834 115.516,99.674 115.732,99.530 116.048 M317.870 116.545 L 317.839 117.276 309.861 117.276 C 305.474 117.276,301.837 117.352,301.779 117.445 C 301.722 117.538,305.316 117.586,309.766 117.552 C 318.461 117.486,318.226 117.520,318.000 116.336 C 317.924 115.938,317.893 115.988,317.870 116.545 M127.658 116.488 C 127.640 116.736,127.573 117.192,127.509 117.501 L 127.393 118.064 127.634 117.512 C 127.767 117.208,127.834 116.752,127.784 116.499 C 127.695 116.050,127.691 116.050,127.658 116.488 M334.960 116.504 C 334.945 117.011,335.607 119.396,335.726 119.268 C 335.766 119.225,335.613 118.481,335.386 117.614 C 335.158 116.747,334.967 116.248,334.960 116.504 M372.126 117.063 C 372.257 117.440,372.407 117.708,372.458 117.657 C 372.569 117.545,372.144 116.376,371.993 116.376 C 371.934 116.376,371.994 116.685,372.126 117.063 M373.925 116.948 C 373.548 117.776,373.620 117.953,374.028 117.200 C 374.218 116.849,374.332 116.519,374.280 116.468 C 374.229 116.416,374.069 116.632,373.925 116.948 M379.954 116.970 C 379.830 117.297,379.770 117.606,379.821 117.657 C 379.872 117.708,380.022 117.440,380.154 117.063 C 380.446 116.223,380.270 116.141,379.954 116.970 M156.246 117.281 C 156.586 118.289,156.778 118.485,156.572 117.614 C 156.484 117.243,156.315 116.840,156.196 116.719 C 156.078 116.598,156.100 116.851,156.246 117.281 M39.477 118.476 L 38.604 119.415 39.505 118.598 C 40.000 118.149,40.532 117.828,40.687 117.885 C 40.841 117.942,40.968 117.941,40.968 117.882 C 40.968 117.391,40.200 117.697,39.477 118.476 M145.976 117.739 C 147.117 117.975,148.038 117.965,147.102 117.727 C 146.730 117.632,146.123 117.554,145.751 117.554 C 145.183 117.553,145.219 117.583,145.976 117.739 M350.916 118.571 L 350.141 119.415 350.985 118.639 C 351.770 117.917,351.932 117.727,351.761 117.727 C 351.723 117.727,351.343 118.106,350.916 118.571 M379.328 118.524 C 378.950 119.352,379.022 119.528,379.430 118.776 C 379.621 118.424,379.734 118.095,379.683 118.043 C 379.631 117.992,379.471 118.208,379.328 118.524 M41.981 119.046 C 42.476 119.578,43.084 120.120,43.331 120.251 C 43.579 120.382,43.731 120.443,43.669 120.387 C 41.476 118.397,41.091 118.091,41.981 119.046 M149.453 118.425 C 149.756 118.546,150.115 118.717,150.252 118.805 C 150.388 118.893,150.306 118.787,150.070 118.571 C 149.834 118.354,149.475 118.183,149.272 118.191 C 149.038 118.200,149.105 118.286,149.453 118.425 M295.586 118.402 C 295.586 118.588,295.673 118.942,295.779 119.190 C 295.901 119.473,295.973 119.515,295.973 119.302 C 295.973 119.116,295.886 118.762,295.779 118.514 C 295.657 118.231,295.586 118.189,295.586 118.402 M119.078 118.597 C 119.077 118.766,119.470 119.298,119.951 119.779 C 120.432 120.260,120.963 120.652,121.133 120.652 C 121.302 120.651,121.110 120.450,120.707 120.204 C 120.304 119.958,119.772 119.426,119.526 119.023 C 119.280 118.619,119.078 118.428,119.078 118.597 M366.476 118.739 C 366.476 118.863,366.621 119.218,366.798 119.527 C 366.975 119.837,367.120 119.989,367.120 119.865 C 367.120 119.741,366.975 119.387,366.798 119.077 C 366.621 118.768,366.476 118.616,366.476 118.739 M68.486 119.584 C 68.244 120.245,68.250 120.273,68.549 119.878 C 68.836 119.500,69.005 118.852,68.817 118.852 C 68.782 118.852,68.633 119.181,68.486 119.584 M228.829 119.656 C 228.746 119.986,228.722 120.299,228.775 120.352 C 228.828 120.405,228.939 120.179,229.022 119.849 C 229.104 119.519,229.129 119.206,229.076 119.153 C 229.023 119.100,228.911 119.326,228.829 119.656 M173.357 119.527 C 173.357 119.713,173.445 120.068,173.551 120.315 C 173.673 120.599,173.744 120.641,173.744 120.428 C 173.744 120.242,173.657 119.887,173.551 119.640 C 173.429 119.356,173.357 119.314,173.357 119.527 M302.532 119.373 C 302.532 119.411,302.862 119.741,303.264 120.104 L 303.995 120.765 303.334 120.034 C 302.718 119.352,302.532 119.199,302.532 119.373 M312.633 119.921 C 312.351 120.281,312.359 120.287,312.731 119.996 C 313.099 119.706,313.287 119.821,314.756 121.234 L 316.376 122.791 314.806 121.159 C 313.077 119.361,313.074 119.359,312.633 119.921 M125.267 120.218 C 124.896 120.456,124.707 120.651,124.848 120.652 C 124.989 120.652,125.344 120.454,125.636 120.210 C 126.306 119.653,126.145 119.656,125.267 120.218 M29.488 120.165 C 29.674 120.279,30.079 120.441,30.388 120.524 C 30.779 120.628,30.848 120.611,30.613 120.466 C 30.428 120.351,30.023 120.189,29.713 120.107 C 29.322 120.002,29.253 120.020,29.488 120.165 M346.374 120.141 C 346.779 120.191,347.387 120.190,347.725 120.138 C 348.063 120.087,347.732 120.046,346.989 120.047 C 346.246 120.049,345.970 120.091,346.374 120.141 M378.427 120.550 C 378.050 121.378,378.122 121.554,378.530 120.802 C 378.720 120.450,378.834 120.121,378.782 120.069 C 378.731 120.018,378.571 120.234,378.427 120.550 M367.152 120.315 C 367.152 120.439,367.296 120.793,367.473 121.103 C 367.650 121.412,367.795 121.564,367.795 121.441 C 367.795 121.317,367.650 120.962,367.473 120.653 C 367.296 120.343,367.152 120.191,367.152 120.315 M44.146 120.990 C 44.347 121.238,44.465 121.567,44.409 121.722 C 44.268 122.112,44.493 122.078,44.643 121.687 C 44.710 121.513,44.543 121.184,44.273 120.955 C 43.789 120.546,43.787 120.547,44.146 120.990 M304.558 120.990 C 304.868 121.167,305.222 121.312,305.346 121.312 C 305.470 121.312,305.318 121.167,305.008 120.990 C 304.699 120.814,304.344 120.669,304.221 120.669 C 304.097 120.669,304.249 120.814,304.558 120.990 M57.625 121.103 C 56.869 121.345,57.686 121.345,58.638 121.103 C 59.245 120.949,59.256 120.931,58.751 120.927 C 58.441 120.925,57.935 121.004,57.625 121.103 M143.050 121.103 C 143.298 121.209,143.652 121.296,143.838 121.296 C 144.051 121.296,144.009 121.225,143.725 121.103 C 143.478 120.997,143.123 120.910,142.938 120.910 C 142.725 120.910,142.766 120.981,143.050 121.103 M22.316 122.499 C 23.035 123.205,23.854 123.894,24.136 124.031 C 24.474 124.194,24.418 124.104,23.973 123.765 C 23.602 123.483,22.783 122.794,22.153 122.234 C 21.161 121.352,21.183 121.387,22.316 122.499 M138.022 121.900 C 137.645 122.728,137.717 122.905,138.125 122.152 C 138.315 121.801,138.429 121.471,138.377 121.420 C 138.326 121.368,138.166 121.585,138.022 121.900 M66.418 122.745 C 65.472 123.854,65.464 123.875,66.267 123.129 C 66.980 122.468,67.709 121.527,67.481 121.563 C 67.446 121.569,66.967 122.101,66.418 122.745 M103.132 122.126 C 102.755 122.953,102.826 123.130,103.234 122.377 C 103.425 122.026,103.538 121.696,103.487 121.645 C 103.435 121.593,103.276 121.810,103.132 122.126 M174.130 122.003 C 174.213 122.313,174.375 122.718,174.489 122.904 C 174.634 123.138,174.652 123.070,174.547 122.679 C 174.465 122.369,174.303 121.964,174.188 121.778 C 174.043 121.544,174.026 121.612,174.130 122.003 M337.873 122.311 C 338.306 122.781,338.863 123.273,339.111 123.403 C 339.358 123.533,339.510 123.593,339.449 123.535 C 338.009 122.196,337.157 121.535,337.873 122.311 M93.432 122.341 C 93.432 122.465,93.577 122.819,93.754 123.129 C 93.930 123.438,94.075 123.590,94.075 123.467 C 94.075 123.343,93.930 122.988,93.754 122.679 C 93.577 122.369,93.432 122.217,93.432 122.341 M298.030 122.986 C 298.464 123.458,299.122 124.053,299.494 124.310 C 300.286 124.859,300.144 124.707,298.481 123.229 C 297.492 122.350,297.401 122.301,298.030 122.986 M155.108 123.414 C 154.467 124.204,154.441 124.271,154.960 123.804 C 155.498 123.319,156.137 122.445,155.945 122.458 C 155.910 122.460,155.533 122.890,155.108 123.414 M193.005 122.755 C 192.941 122.921,192.919 123.858,192.956 124.837 L 193.022 126.618 200.999 126.677 C 205.386 126.710,209.053 126.659,209.148 126.565 C 209.242 126.470,205.678 126.421,201.227 126.455 L 193.134 126.516 193.134 124.600 L 193.134 122.684 201.294 122.622 L 209.454 122.560 201.287 122.507 C 194.637 122.463,193.099 122.510,193.005 122.755 M114.688 123.773 C 115.183 124.305,115.791 124.847,116.038 124.978 C 116.286 125.109,116.438 125.170,116.376 125.114 C 114.183 123.124,113.798 122.818,114.688 123.773 M137.296 123.380 C 137.089 123.767,137.117 123.926,137.445 124.224 C 137.819 124.566,137.828 124.565,137.563 124.212 C 137.350 123.928,137.341 123.717,137.527 123.368 C 137.664 123.113,137.725 122.904,137.664 122.904 C 137.602 122.904,137.436 123.118,137.296 123.380 M316.263 123.229 C 316.263 123.408,315.690 123.965,314.989 124.467 C 314.288 124.969,313.797 125.380,313.899 125.380 C 314.281 125.380,316.488 123.551,316.488 123.234 C 316.488 123.052,316.438 122.904,316.376 122.904 C 316.314 122.904,316.263 123.050,316.263 123.229 M351.800 123.298 C 351.523 123.652,351.530 123.661,351.872 123.393 C 352.217 123.124,352.261 123.199,352.338 124.181 L 352.423 125.267 352.464 124.086 C 352.506 122.852,352.321 122.633,351.800 123.298 M41.989 123.830 C 40.806 124.719,40.696 124.866,41.602 124.346 C 42.241 123.979,43.245 123.098,42.972 123.144 C 42.922 123.153,42.480 123.461,41.989 123.830 M102.456 123.701 C 102.079 124.529,102.151 124.706,102.559 123.953 C 102.749 123.602,102.863 123.272,102.812 123.221 C 102.760 123.169,102.600 123.385,102.456 123.701 M227.575 123.176 C 227.575 123.244,227.421 123.666,227.234 124.114 C 227.047 124.563,226.944 124.930,227.006 124.930 C 227.184 124.930,227.818 123.298,227.690 123.169 C 227.627 123.106,227.575 123.109,227.575 123.176 M174.695 123.467 C 174.695 123.590,174.889 124.046,175.127 124.479 C 175.364 124.913,175.558 125.166,175.558 125.042 C 175.558 124.918,175.364 124.463,175.127 124.029 C 174.889 123.596,174.695 123.343,174.695 123.467 M127.094 124.478 C 126.614 124.842,126.158 125.210,126.081 125.296 C 125.861 125.544,126.551 125.124,127.349 124.525 L 128.081 123.976 128.081 125.015 C 128.081 125.587,128.157 126.055,128.250 126.055 C 128.343 126.055,128.384 125.549,128.341 124.930 C 128.250 123.617,128.238 123.613,127.094 124.478 M368.727 123.917 C 368.727 124.041,368.872 124.395,369.049 124.705 C 369.226 125.014,369.371 125.166,369.371 125.042 C 369.371 124.918,369.226 124.564,369.049 124.254 C 368.872 123.945,368.727 123.793,368.727 123.917 M358.639 124.817 C 358.641 125.312,358.687 125.488,358.741 125.208 C 358.795 124.928,358.793 124.523,358.737 124.308 C 358.680 124.093,358.636 124.322,358.639 124.817 M153.180 124.835 C 152.684 125.130,152.380 125.374,152.504 125.375 C 152.775 125.379,154.192 124.535,154.192 124.370 C 154.192 124.223,154.239 124.202,153.180 124.835 M25.211 124.590 C 25.211 124.744,26.589 125.427,26.692 125.324 C 26.741 125.275,26.428 125.067,25.996 124.861 C 25.564 124.655,25.211 124.533,25.211 124.590 M63.478 124.930 C 63.044 125.167,62.771 125.365,62.870 125.370 C 63.108 125.383,64.378 124.723,64.378 124.586 C 64.378 124.439,64.365 124.444,63.478 124.930 M138.436 124.817 C 138.745 124.994,139.100 125.139,139.223 125.139 C 139.347 125.139,139.195 124.994,138.886 124.817 C 138.576 124.640,138.222 124.495,138.098 124.495 C 137.974 124.495,138.126 124.640,138.436 124.817 M342.262 124.930 C 342.510 125.036,342.864 125.123,343.050 125.123 C 343.263 125.123,343.221 125.052,342.938 124.930 C 342.690 124.823,342.335 124.736,342.150 124.736 C 341.937 124.736,341.978 124.808,342.262 124.930 M226.481 125.637 C 226.323 125.891,226.242 126.148,226.303 126.209 C 226.363 126.269,226.530 126.099,226.674 125.830 C 227.014 125.194,226.856 125.036,226.481 125.637 M344.119 125.314 C 344.398 125.367,344.854 125.367,345.132 125.314 C 345.411 125.260,345.183 125.216,344.626 125.216 C 344.069 125.216,343.841 125.260,344.119 125.314 M346.370 125.314 C 346.649 125.367,347.105 125.367,347.383 125.314 C 347.662 125.260,347.434 125.216,346.877 125.216 C 346.320 125.216,346.092 125.260,346.370 125.314 M27.575 125.726 C 27.946 125.896,28.402 126.032,28.588 126.028 C 28.773 126.024,28.571 125.884,28.137 125.718 C 27.110 125.322,26.705 125.328,27.575 125.726 M72.032 125.661 C 72.032 125.754,73.450 125.830,75.183 125.830 C 76.916 125.830,78.334 125.754,78.334 125.661 C 78.334 125.568,76.916 125.492,75.183 125.492 C 73.450 125.492,72.032 125.568,72.032 125.661 M117.169 125.583 C 117.290 125.701,117.693 125.870,118.064 125.958 C 118.935 126.165,118.740 125.973,117.732 125.632 C 117.301 125.487,117.048 125.464,117.169 125.583 M151.041 125.718 C 150.608 125.884,150.405 126.024,150.591 126.028 C 150.777 126.032,151.232 125.896,151.604 125.726 C 152.473 125.328,152.069 125.322,151.041 125.718 M175.914 126.055 C 176.107 126.427,176.314 126.730,176.376 126.730 C 176.438 126.730,176.332 126.427,176.140 126.055 C 175.947 125.684,175.740 125.380,175.678 125.380 C 175.616 125.380,175.722 125.684,175.914 126.055 M30.785 126.439 C 31.065 126.493,31.470 126.491,31.685 126.435 C 31.900 126.379,31.671 126.335,31.176 126.337 C 30.681 126.340,30.505 126.386,30.785 126.439 M34.612 126.439 C 34.892 126.493,35.297 126.491,35.512 126.435 C 35.727 126.379,35.498 126.335,35.003 126.337 C 34.508 126.340,34.332 126.386,34.612 126.439 M57.006 126.441 C 57.347 126.493,57.904 126.493,58.244 126.441 C 58.585 126.390,58.306 126.348,57.625 126.348 C 56.944 126.348,56.666 126.390,57.006 126.441 M121.047 126.439 C 121.325 126.493,121.781 126.493,122.060 126.439 C 122.338 126.385,122.110 126.342,121.553 126.342 C 120.996 126.342,120.768 126.385,121.047 126.439 M145.808 126.443 C 146.210 126.493,146.868 126.493,147.271 126.443 C 147.673 126.393,147.344 126.352,146.539 126.352 C 145.734 126.352,145.405 126.393,145.808 126.443 M272.425 126.447 C 273.261 126.490,274.629 126.490,275.464 126.447 C 276.300 126.404,275.616 126.368,273.945 126.368 C 272.273 126.368,271.590 126.404,272.425 126.447 M306.424 126.672 C 307.140 126.717,308.254 126.716,308.900 126.671 C 309.545 126.626,308.959 126.589,307.597 126.590 C 306.235 126.590,305.707 126.627,306.424 126.672 M176.879 127.631 C 177.927 129.352,179.245 130.973,180.906 132.583 L 182.647 134.271 180.851 132.358 C 179.863 131.306,178.558 129.736,177.952 128.869 C 176.694 127.071,176.172 126.469,176.879 127.631 M339.111 127.327 C 339.641 127.745,341.922 128.838,342.024 128.723 C 342.062 128.680,341.321 128.268,340.377 127.808 C 339.433 127.348,338.863 127.132,339.111 127.327 M224.978 128.137 C 224.631 128.663,224.490 128.975,224.666 128.830 C 225.004 128.551,225.866 127.181,225.704 127.181 C 225.651 127.181,225.325 127.611,224.978 128.137 M375.276 127.978 C 374.899 128.806,374.971 128.982,375.378 128.230 C 375.569 127.879,375.682 127.549,375.631 127.497 C 375.580 127.446,375.420 127.662,375.276 127.978 M368.802 128.112 C 368.289 128.688,367.162 129.195,366.299 129.237 C 365.762 129.263,365.745 129.282,366.183 129.366 C 366.956 129.514,368.112 129.049,368.829 128.301 C 369.182 127.932,369.417 127.631,369.351 127.631 C 369.285 127.631,369.038 127.847,368.802 128.112 M362.609 128.258 C 362.367 128.578,362.369 128.599,362.619 128.377 C 362.852 128.170,363.038 128.188,363.452 128.459 C 363.745 128.651,363.984 128.757,363.984 128.696 C 363.984 128.245,362.883 127.895,362.609 128.258 M342.938 128.971 C 343.370 129.167,344.575 129.294,344.382 129.124 C 344.330 129.078,343.883 128.979,343.388 128.904 C 342.760 128.808,342.624 128.829,342.938 128.971 M348.452 128.981 C 347.989 129.130,347.969 129.165,348.340 129.181 C 348.588 129.191,348.942 129.101,349.128 128.981 C 349.522 128.727,349.248 128.727,348.452 128.981 M361.890 129.547 C 361.684 129.979,361.562 130.332,361.619 130.332 C 361.773 130.332,362.456 128.954,362.353 128.851 C 362.304 128.802,362.096 129.115,361.890 129.547 M364.434 128.971 C 364.620 129.097,364.966 129.201,365.204 129.203 C 365.779 129.208,365.600 129.079,364.772 128.894 C 364.279 128.783,364.188 128.804,364.434 128.971 M223.626 130.051 C 223.281 130.515,222.079 131.802,220.954 132.911 C 219.647 134.199,219.340 134.573,220.105 133.946 C 221.227 133.027,223.364 130.756,224.115 129.683 C 224.693 128.857,224.281 129.167,223.626 130.051 M345.357 129.371 C 345.822 129.419,346.581 129.419,347.046 129.371 C 347.510 129.322,347.130 129.282,346.201 129.282 C 345.273 129.282,344.893 129.322,345.357 129.371 M372.741 131.914 C 372.047 132.642,371.642 133.150,371.840 133.041 C 372.195 132.848,373.292 131.719,373.872 130.951 C 374.408 130.240,374.021 130.569,372.741 131.914 M354.440 132.373 C 353.958 132.736,353.658 133.033,353.774 133.033 C 353.890 133.033,354.335 132.733,354.764 132.367 C 355.761 131.515,355.578 131.518,354.440 132.373 M340.461 133.708 C 340.709 133.815,341.114 133.899,341.362 133.895 C 341.724 133.890,341.702 133.853,341.249 133.708 C 340.480 133.462,339.888 133.462,340.461 133.708 M362.746 133.829 C 363.118 133.999,363.573 134.135,363.759 134.131 C 363.945 134.128,363.742 133.988,363.309 133.821 C 362.281 133.425,361.877 133.431,362.746 133.829 M369.949 133.829 C 369.384 134.101,369.366 134.132,369.837 134.019 C 370.146 133.944,370.496 133.793,370.613 133.683 C 370.905 133.411,370.745 133.446,369.949 133.829 M346.033 134.545 C 346.373 134.597,346.930 134.597,347.271 134.545 C 347.611 134.493,347.333 134.451,346.652 134.451 C 345.971 134.451,345.692 134.493,346.033 134.545 M366.182 134.543 C 366.462 134.597,366.867 134.595,367.082 134.538 C 367.297 134.482,367.068 134.438,366.573 134.441 C 366.078 134.443,365.902 134.489,366.182 134.543 M217.670 135.648 C 217.237 135.960,216.148 136.623,215.250 137.121 C 213.361 138.169,213.064 138.498,214.800 137.620 C 216.035 136.996,218.571 135.343,218.571 135.163 C 218.571 135.008,218.526 135.032,217.670 135.648 M212.493 138.548 C 212.183 138.725,212.032 138.870,212.155 138.870 C 212.279 138.870,212.634 138.725,212.943 138.548 C 213.253 138.371,213.405 138.226,213.281 138.226 C 213.157 138.226,212.802 138.371,212.493 138.548 M210.017 139.449 C 209.584 139.615,209.381 139.755,209.567 139.759 C 209.752 139.763,210.208 139.627,210.580 139.457 C 211.449 139.059,211.045 139.053,210.017 139.449 M194.485 140.236 C 195.255 140.483,195.847 140.483,195.273 140.236 C 195.025 140.130,194.620 140.046,194.373 140.050 C 194.011 140.055,194.033 140.091,194.485 140.236 M207.091 140.236 C 206.645 140.379,206.622 140.417,206.978 140.417 C 207.226 140.417,207.681 140.335,207.991 140.236 C 208.437 140.094,208.460 140.056,208.104 140.056 C 207.856 140.056,207.400 140.137,207.091 140.236 M198.033 140.846 C 198.313 140.900,198.718 140.898,198.933 140.841 C 199.149 140.785,198.920 140.741,198.424 140.743 C 197.929 140.746,197.753 140.792,198.033 140.846 M203.433 140.845 C 203.711 140.899,204.167 140.899,204.446 140.845 C 204.724 140.792,204.496 140.748,203.939 140.748 C 203.382 140.748,203.154 140.792,203.433 140.845 M200.276 141.074 C 200.676 141.124,201.385 141.125,201.852 141.076 C 202.319 141.027,201.992 140.987,201.125 140.986 C 200.259 140.985,199.877 141.024,200.276 141.074 " stroke="none" fill="#beb2a4" fill-rule="evenodd"></path></g></svg>